<svg width="237" height="93" viewBox="0 0 237 93" fill="none" xmlns="http://www.w3.org/2000/svg">
<path d="M16.304 0.671999C16.36 0.671999 16.412 0.671999 16.46 0.671999V0.792C16.084 0.808 15.728 0.895999 15.392 1.056C15.056 1.216 14.772 1.408 14.54 1.632C14.308 1.848 14.092 2.112 13.892 2.424C13.572 2.92 13.3 3.488 13.076 4.128L10.772 10.812C10.612 11.316 10.524 11.76 10.508 12.144H10.4L7.952 5.292L6.02 11.34C5.732 12.244 5.268 12.948 4.628 13.452C4.164 13.828 3.644 14.016 3.068 14.016C2.868 14.016 2.656 13.992 2.432 13.944L2.456 13.824C2.576 13.848 2.712 13.86 2.864 13.86C3.024 13.86 3.232 13.812 3.488 13.716C3.752 13.62 4.012 13.448 4.268 13.2C4.788 12.696 5.188 12.064 5.468 11.304L3.044 4.452C2.948 4.212 2.8 4.032 2.6 3.912C2.4 3.784 2.196 3.72 1.988 3.72H1.892V3.6H4.556V3.72H4.448C4.28 3.72 4.152 3.776 4.064 3.888C3.984 3.992 3.944 4.092 3.944 4.188C3.944 4.284 3.956 4.372 3.98 4.452L5.804 10.296L8.036 3.408L8.144 3.42L10.52 10.068L12.296 4.128C12.504 3.432 12.824 2.804 13.256 2.244C14.056 1.196 15.072 0.671999 16.304 0.671999ZM14.3252 11.88C14.5332 11.88 14.7092 11.808 14.8532 11.664C15.0052 11.512 15.0852 11.332 15.0932 11.124V4.404C15.0932 4.212 15.0172 4.052 14.8652 3.924C14.7132 3.788 14.5332 3.72 14.3252 3.72H14.1812L14.1692 3.6H16.6052C16.8532 3.6 17.1212 3.576 17.4092 3.528C17.7052 3.48 17.9132 3.432 18.0332 3.384V4.896H17.9132V4.68C17.9132 4.488 17.8452 4.324 17.7092 4.188C17.5812 4.052 17.4252 3.98 17.2412 3.972H15.8732V7.68H18.1532C18.3132 7.672 18.4492 7.612 18.5612 7.5C18.6732 7.388 18.7292 7.248 18.7292 7.08V6.912H18.8492V8.808H18.7292V8.628C18.7292 8.468 18.6732 8.332 18.5612 8.22C18.4572 8.108 18.3252 8.048 18.1652 8.04H15.8732V11.628H18.4292C19.0212 11.628 19.4732 11.496 19.7852 11.232C20.0972 10.968 20.3572 10.576 20.5652 10.056H20.6852L19.9892 12H14.1692V11.88H14.3252ZM23.6211 12.228C25.3251 12.82 26.6011 13.22 27.4491 13.428C28.3051 13.644 29.0371 13.752 29.6451 13.752C30.2611 13.752 30.9371 13.612 31.6731 13.332L31.7331 13.428C30.7571 14.1 29.7731 14.436 28.7811 14.436C27.7651 14.436 26.6091 14.12 25.3131 13.488C24.3131 12.992 23.6931 12.692 23.4531 12.588C22.5971 12.204 21.8931 12.008 21.3411 12V11.88H21.4971C21.7051 11.88 21.8811 11.808 22.0251 11.664C22.1771 11.52 22.2571 11.34 22.2651 11.124V4.476C22.2571 4.268 22.1771 4.092 22.0251 3.948C21.8811 3.796 21.7051 3.72 21.4971 3.72H21.3411V3.6H23.9691V3.72H23.8131C23.6051 3.72 23.4251 3.796 23.2731 3.948C23.1211 4.092 23.0451 4.268 23.0451 4.476V11.4C23.0451 11.544 23.0531 11.656 23.0691 11.736C23.0851 11.808 23.1371 11.892 23.2251 11.988C23.3131 12.084 23.4451 12.164 23.6211 12.228ZM38.0015 7.788C38.0015 9.164 37.6295 10.24 36.8855 11.016C36.1495 11.784 35.1055 12.168 33.7535 12.168C32.8415 12.168 32.0175 11.976 31.2815 11.592C30.5535 11.208 29.9855 10.684 29.5775 10.02C29.1775 9.356 28.9775 8.616 28.9775 7.8C28.9775 6.976 29.1775 6.232 29.5775 5.568C29.9775 4.904 30.5295 4.384 31.2335 4.008C31.9375 3.624 32.7215 3.432 33.5855 3.432C34.1295 3.432 34.6815 3.508 35.2415 3.66C35.8095 3.804 36.2815 4 36.6575 4.248L36.8975 5.94H36.7895C36.6215 5.268 36.2335 4.744 35.6255 4.368C35.0175 3.984 34.3415 3.792 33.5975 3.792C32.5335 3.792 31.6455 4.172 30.9335 4.932C30.2295 5.684 29.8775 6.632 29.8775 7.776C29.8775 8.92 30.2415 9.88 30.9695 10.656C31.7055 11.424 32.6655 11.808 33.8495 11.808C35.0335 11.808 35.9975 11.424 36.7415 10.656C37.4935 9.888 37.8695 8.836 37.8695 7.5H37.9895C37.9975 7.596 38.0015 7.692 38.0015 7.788ZM41.617 6.396C41.585 6.292 41.569 6.204 41.569 6.132C41.569 6.052 41.573 5.964 41.581 5.868C41.589 5.772 41.605 5.64 41.629 5.472C41.661 5.304 41.717 5.14 41.797 4.98C41.877 4.812 41.969 4.652 42.073 4.5C42.177 4.348 42.309 4.208 42.469 4.08C42.637 3.952 42.821 3.84 43.021 3.744C43.445 3.536 43.961 3.432 44.569 3.432C45.793 3.432 46.789 3.84 47.557 4.656C48.333 5.464 48.721 6.5 48.721 7.764C48.721 9.028 48.265 10.08 47.353 10.92C46.441 11.752 45.285 12.168 43.885 12.168C42.485 12.168 41.321 11.752 40.393 10.92C39.473 10.088 39.013 9.008 39.013 7.68C39.013 6.824 39.213 6.064 39.613 5.4C40.013 4.736 40.585 4.216 41.329 3.84L41.401 3.948C40.881 4.292 40.505 4.788 40.273 5.436C40.049 6.084 39.937 6.772 39.937 7.5C39.937 8.852 40.305 9.908 41.041 10.668C41.777 11.428 42.721 11.808 43.873 11.808C45.025 11.808 45.965 11.428 46.693 10.668C47.429 9.9 47.797 8.892 47.797 7.644C47.797 6.564 47.505 5.652 46.921 4.908C46.345 4.164 45.529 3.792 44.473 3.792C44.001 3.792 43.573 3.876 43.189 4.044C42.493 4.34 42.033 4.828 41.809 5.508C41.745 5.708 41.713 5.88 41.713 6.024C41.713 6.168 41.721 6.284 41.737 6.372L41.617 6.396ZM62.4617 13.944C62.5097 13.944 62.5577 13.944 62.6057 13.944V14.064C62.3817 14.096 62.1297 14.112 61.8497 14.112C61.5777 14.112 61.2377 14.052 60.8297 13.932C60.4297 13.812 60.0657 13.588 59.7377 13.26C59.0657 12.588 58.6577 11.716 58.5137 10.644L57.7817 5.304L55.2857 10.944C55.0617 11.432 54.9257 11.84 54.8777 12.168H54.7577L51.6497 5.412L51.1217 11.376C51.1057 11.512 51.1457 11.632 51.2417 11.736C51.3457 11.84 51.4577 11.892 51.5777 11.892H51.7697V12H49.4417V11.88H49.6337C49.8497 11.88 50.0377 11.816 50.1977 11.688C50.3657 11.552 50.4697 11.376 50.5097 11.16L51.2657 4.608C50.5617 3.224 49.7177 2.532 48.7337 2.532C48.6457 2.532 48.5537 2.536 48.4577 2.544V2.424C48.6737 2.368 48.8497 2.34 48.9857 2.34C49.1217 2.34 49.2697 2.348 49.4297 2.364C49.5897 2.372 49.7777 2.408 49.9937 2.472C50.2097 2.536 50.4137 2.632 50.6057 2.76C50.7977 2.88 50.9657 3.008 51.1097 3.144C51.2537 3.272 51.3897 3.416 51.5177 3.576C51.7337 3.864 51.9057 4.14 52.0337 4.404L54.9257 10.668L58.1537 3.432H58.2617L59.3777 10.536C59.5457 11.656 59.9057 12.504 60.4577 13.08C61.0177 13.656 61.6857 13.944 62.4617 13.944ZM61.3057 11.88C61.5137 11.88 61.6897 11.808 61.8337 11.664C61.9857 11.512 62.0657 11.332 62.0737 11.124V4.404C62.0737 4.212 61.9977 4.052 61.8457 3.924C61.6937 3.788 61.5137 3.72 61.3057 3.72H61.1617L61.1497 3.6H63.5857C63.8337 3.6 64.1017 3.576 64.3897 3.528C64.6857 3.48 64.8937 3.432 65.0137 3.384V4.896H64.8937V4.68C64.8937 4.488 64.8257 4.324 64.6897 4.188C64.5617 4.052 64.4057 3.98 64.2217 3.972H62.8537V7.68H65.1337C65.2937 7.672 65.4297 7.612 65.5417 7.5C65.6537 7.388 65.7097 7.248 65.7097 7.08V6.912H65.8297V8.808H65.7097V8.628C65.7097 8.468 65.6537 8.332 65.5417 8.22C65.4377 8.108 65.3057 8.048 65.1457 8.04H62.8537V11.628H65.4097C66.0017 11.628 66.4537 11.496 66.7657 11.232C67.0777 10.968 67.3377 10.576 67.5457 10.056H67.6657L66.9697 12H61.1497V11.88H61.3057ZM70.0227 5.988C69.7747 5.692 69.6507 5.4 69.6507 5.112C69.6507 4.816 69.7187 4.564 69.8547 4.356C69.9907 4.14 70.2107 3.96 70.5147 3.816C70.8188 3.664 71.1628 3.588 71.5468 3.588H76.4668C76.7148 3.588 76.9868 3.564 77.2828 3.516C77.5868 3.468 77.7988 3.42 77.9188 3.372V4.884L77.7988 4.872V4.668C77.7988 4.476 77.7308 4.312 77.5948 4.176C77.4588 4.032 77.2988 3.956 77.1148 3.948H74.8348V11.136C74.8428 11.424 74.9708 11.64 75.2188 11.784C75.3388 11.848 75.4668 11.88 75.6028 11.88H75.7588V12H73.1308V11.88H73.2868C73.4948 11.88 73.6708 11.808 73.8148 11.664C73.9668 11.52 74.0468 11.348 74.0548 11.148V3.948H71.5468C70.9068 3.948 70.4427 4.152 70.1547 4.56C70.0027 4.768 69.9268 4.988 69.9268 5.22C69.9268 5.444 69.9907 5.68 70.1187 5.928L70.0227 5.988ZM81.156 6.396C81.124 6.292 81.108 6.204 81.108 6.132C81.108 6.052 81.112 5.964 81.12 5.868C81.128 5.772 81.144 5.64 81.168 5.472C81.2 5.304 81.256 5.14 81.336 4.98C81.416 4.812 81.508 4.652 81.612 4.5C81.716 4.348 81.848 4.208 82.008 4.08C82.176 3.952 82.36 3.84 82.56 3.744C82.984 3.536 83.5 3.432 84.108 3.432C85.332 3.432 86.328 3.84 87.096 4.656C87.872 5.464 88.26 6.5 88.26 7.764C88.26 9.028 87.804 10.08 86.892 10.92C85.98 11.752 84.824 12.168 83.424 12.168C82.024 12.168 80.86 11.752 79.932 10.92C79.012 10.088 78.552 9.008 78.552 7.68C78.552 6.824 78.752 6.064 79.152 5.4C79.552 4.736 80.124 4.216 80.868 3.84L80.94 3.948C80.42 4.292 80.044 4.788 79.812 5.436C79.588 6.084 79.476 6.772 79.476 7.5C79.476 8.852 79.844 9.908 80.58 10.668C81.316 11.428 82.26 11.808 83.412 11.808C84.564 11.808 85.504 11.428 86.232 10.668C86.968 9.9 87.336 8.892 87.336 7.644C87.336 6.564 87.044 5.652 86.46 4.908C85.884 4.164 85.068 3.792 84.012 3.792C83.54 3.792 83.112 3.876 82.728 4.044C82.032 4.34 81.572 4.828 81.348 5.508C81.284 5.708 81.252 5.88 81.252 6.024C81.252 6.168 81.26 6.284 81.276 6.372L81.156 6.396ZM93.4046 8.808C92.9886 9.352 92.7806 9.94 92.7806 10.572C92.7806 11.324 93.0966 11.908 93.7286 12.324C94.0966 12.572 94.5126 12.696 94.9766 12.696C95.4486 12.696 95.8566 12.604 96.2006 12.42C96.8486 12.084 97.2126 11.52 97.2926 10.728C97.3006 10.672 97.3046 10.616 97.3046 10.56C97.3046 10.264 97.2206 9.944 97.0526 9.6C96.8926 9.256 96.6286 8.94 96.2606 8.652L94.1006 6.948C93.6286 6.58 93.3926 6.104 93.3926 5.52C93.3926 4.936 93.5806 4.444 93.9566 4.044C94.3326 3.636 94.8406 3.432 95.4806 3.432C95.8006 3.432 96.1486 3.472 96.5246 3.552H97.0046L97.0286 5.028H96.9086C96.9006 4.644 96.7606 4.344 96.4886 4.128C96.2246 3.904 95.8886 3.792 95.4806 3.792C95.0806 3.792 94.7446 3.928 94.4726 4.2C94.2006 4.464 94.0646 4.808 94.0646 5.232C94.0646 5.648 94.2406 5.996 94.5926 6.276L96.8126 8.028C97.6926 8.724 98.1326 9.564 98.1326 10.548C98.1326 11.284 97.8406 11.916 97.2566 12.444C96.7526 12.9 96.0806 13.128 95.2406 13.128C94.7286 13.128 94.2726 13.032 93.8726 12.84C93.1206 12.488 92.6686 11.888 92.5166 11.04C92.4926 10.912 92.4806 10.752 92.4806 10.56C92.4806 10.36 92.5366 10.092 92.6486 9.756C92.7606 9.412 92.9766 9.068 93.2966 8.724L93.4046 8.808ZM107.155 11.88H107.251V12H104.551V11.88H104.659C104.827 11.88 104.951 11.828 105.031 11.724C105.119 11.612 105.163 11.508 105.163 11.412C105.163 11.316 105.147 11.22 105.115 11.124L104.347 9.084H101.107L100.303 11.136C100.271 11.232 100.255 11.328 100.255 11.424C100.255 11.512 100.295 11.612 100.375 11.724C100.463 11.828 100.591 11.88 100.759 11.88H100.867V12H98.4545V11.88H98.5625C98.7625 11.88 98.9585 11.816 99.1505 11.688C99.3425 11.56 99.4985 11.372 99.6185 11.124L102.331 4.668C102.627 4.02 102.775 3.608 102.775 3.432H102.883L106.099 11.124C106.211 11.372 106.363 11.56 106.555 11.688C106.747 11.816 106.947 11.88 107.155 11.88ZM101.251 8.724H104.203L102.763 4.872L101.251 8.724ZM107.981 11.88C108.189 11.88 108.365 11.808 108.509 11.664C108.661 11.512 108.741 11.332 108.749 11.124V4.464C108.741 4.256 108.661 4.08 108.509 3.936C108.365 3.792 108.189 3.72 107.981 3.72H107.825V3.6H110.453V3.72H110.297C110.089 3.72 109.909 3.792 109.757 3.936C109.613 4.08 109.537 4.256 109.529 4.464V11.124C109.529 11.332 109.605 11.512 109.757 11.664C109.909 11.808 110.089 11.88 110.297 11.88H110.453V12H107.825V11.88H107.981ZM116.824 3.732V4.74H116.704V4.56C116.704 4.4 116.648 4.264 116.536 4.152C116.424 4.032 116.284 3.972 116.116 3.972H113.584V7.68H115.612C115.772 7.672 115.908 7.612 116.02 7.5C116.132 7.388 116.188 7.252 116.188 7.092V6.912H116.308V8.808H116.188V8.628C116.188 8.468 116.132 8.332 116.02 8.22C115.916 8.108 115.784 8.048 115.624 8.04H113.584V11.124C113.584 11.332 113.66 11.512 113.812 11.664C113.964 11.808 114.144 11.88 114.352 11.88H114.508V12H111.88V11.88H112.036C112.244 11.88 112.42 11.808 112.564 11.664C112.716 11.512 112.796 11.332 112.804 11.124V4.404C112.804 4.212 112.724 4.052 112.564 3.924C112.412 3.788 112.236 3.72 112.036 3.72H111.892L111.88 3.6H115.396C115.644 3.6 115.912 3.576 116.2 3.528C116.496 3.48 116.704 3.432 116.824 3.384V3.732ZM131.296 1.536C131.36 1.536 131.428 1.536 131.5 1.536V1.656C130.62 1.656 129.924 1.948 129.412 2.532C128.9 3.108 128.644 3.944 128.644 5.04V9.036C128.644 9.972 128.348 10.728 127.756 11.304C127.164 11.88 126.376 12.168 125.392 12.168C124.408 12.168 123.608 11.884 122.992 11.316C122.384 10.74 122.08 9.984 122.08 9.048V4.308C122.08 4.076 121.976 3.904 121.768 3.792C121.672 3.744 121.564 3.72 121.444 3.72H121.252V3.6H123.688V3.72H123.496C123.32 3.72 123.172 3.776 123.052 3.888C122.932 3.992 122.868 4.128 122.86 4.296V8.88C122.86 9.752 123.092 10.456 123.556 10.992C124.028 11.52 124.644 11.784 125.404 11.784C126.212 11.784 126.86 11.532 127.348 11.028C127.836 10.524 128.08 9.86 128.08 9.036V5.052C128.08 3.876 128.376 2.996 128.968 2.412C129.568 1.828 130.344 1.536 131.296 1.536ZM130.927 11.88C131.135 11.88 131.311 11.808 131.455 11.664C131.607 11.512 131.687 11.332 131.695 11.124V4.476C131.687 4.268 131.607 4.092 131.455 3.948C131.311 3.796 131.135 3.72 130.927 3.72H130.771V3.6H133.399V3.72H133.243C132.955 3.72 132.735 3.844 132.583 4.092C132.511 4.212 132.475 4.34 132.475 4.476V11.628H134.191C134.783 11.628 135.235 11.496 135.547 11.232C135.859 10.968 136.119 10.576 136.327 10.056H136.447L135.751 12H130.771V11.88H130.927ZM137.489 11.88C137.697 11.88 137.873 11.808 138.017 11.664C138.169 11.512 138.249 11.332 138.257 11.124V4.476C138.249 4.268 138.169 4.092 138.017 3.948C137.873 3.796 137.697 3.72 137.489 3.72H137.333V3.6H139.961V3.72H139.805C139.517 3.72 139.297 3.844 139.145 4.092C139.073 4.212 139.037 4.34 139.037 4.476V11.628H140.753C141.345 11.628 141.797 11.496 142.109 11.232C142.421 10.968 142.681 10.576 142.889 10.056H143.009L142.313 12H137.333V11.88H137.489ZM151.944 11.88H152.04V12H149.34V11.88H149.448C149.616 11.88 149.74 11.828 149.82 11.724C149.908 11.612 149.952 11.508 149.952 11.412C149.952 11.316 149.936 11.22 149.904 11.124L149.136 9.084H145.896L145.092 11.136C145.06 11.232 145.044 11.328 145.044 11.424C145.044 11.512 145.084 11.612 145.164 11.724C145.252 11.828 145.38 11.88 145.548 11.88H145.656V12H143.244V11.88H143.352C143.552 11.88 143.748 11.816 143.94 11.688C144.132 11.56 144.288 11.372 144.408 11.124L147.12 4.668C147.416 4.02 147.564 3.608 147.564 3.432H147.672L150.888 11.124C151 11.372 151.152 11.56 151.344 11.688C151.536 11.816 151.736 11.88 151.944 11.88ZM146.04 8.724H148.992L147.552 4.872L146.04 8.724ZM158.459 11.88C158.667 11.88 158.843 11.808 158.987 11.664C159.139 11.512 159.219 11.336 159.227 11.136V8.028H154.319V11.136C154.319 11.344 154.395 11.52 154.547 11.664C154.699 11.808 154.879 11.88 155.087 11.88H155.243V12H152.615V11.88H152.771C152.979 11.88 153.155 11.808 153.299 11.664C153.451 11.52 153.531 11.344 153.539 11.136V4.464C153.531 4.256 153.451 4.08 153.299 3.936C153.155 3.792 152.979 3.72 152.771 3.72H152.615V3.6H155.243V3.72H155.087C154.879 3.72 154.699 3.792 154.547 3.936C154.403 4.08 154.327 4.256 154.319 4.464V7.668H159.227V4.464C159.219 4.176 159.091 3.96 158.843 3.816C158.723 3.752 158.595 3.72 158.459 3.72H158.303V3.6H160.931V3.72H160.775C160.567 3.72 160.387 3.796 160.235 3.948C160.091 4.092 160.015 4.268 160.007 4.476V11.136C160.015 11.344 160.091 11.52 160.235 11.664C160.387 11.808 160.567 11.88 160.775 11.88H160.931V12H158.303V11.88H158.459ZM168.88 3.408C169.576 3.408 170.156 3.576 170.62 3.912C171.244 4.36 171.556 5.06 171.556 6.012C171.556 6.7 171.364 7.288 170.98 7.776C170.564 8.296 169.984 8.556 169.24 8.556C168.848 8.556 168.492 8.464 168.172 8.28C167.852 8.088 167.664 7.764 167.608 7.308L167.716 7.272C167.804 7.616 168.008 7.856 168.328 7.992C168.544 8.088 168.736 8.136 168.904 8.136C169.56 8.136 170.036 7.88 170.332 7.368C170.548 6.992 170.656 6.544 170.656 6.024C170.656 5.192 170.424 4.592 169.96 4.224C169.608 3.936 169.16 3.792 168.616 3.792C168.488 3.792 168.376 3.8 168.28 3.816C168.192 3.824 167.792 3.888 167.08 4.008V11.124C167.088 11.34 167.168 11.52 167.32 11.664C167.472 11.808 167.648 11.88 167.848 11.88H168.004V12H165.376V11.88H165.532C165.732 11.88 165.908 11.808 166.06 11.664C166.212 11.52 166.292 11.34 166.3 11.124V4.632C166.3 4.424 166.24 4.264 166.12 4.152C166 4.032 165.844 3.972 165.652 3.972C165.612 3.972 165.572 3.976 165.532 3.984L165.388 3.996L165.364 3.876C165.78 3.836 166.336 3.76 167.032 3.648C167.736 3.528 168.172 3.46 168.34 3.444C168.508 3.42 168.688 3.408 168.88 3.408ZM175.48 6.396C175.448 6.292 175.432 6.204 175.432 6.132C175.432 6.052 175.436 5.964 175.444 5.868C175.452 5.772 175.468 5.64 175.492 5.472C175.524 5.304 175.58 5.14 175.66 4.98C175.74 4.812 175.832 4.652 175.936 4.5C176.04 4.348 176.172 4.208 176.332 4.08C176.5 3.952 176.684 3.84 176.884 3.744C177.308 3.536 177.824 3.432 178.432 3.432C179.656 3.432 180.652 3.84 181.42 4.656C182.196 5.464 182.584 6.5 182.584 7.764C182.584 9.028 182.128 10.08 181.216 10.92C180.304 11.752 179.148 12.168 177.748 12.168C176.348 12.168 175.184 11.752 174.256 10.92C173.336 10.088 172.876 9.008 172.876 7.68C172.876 6.824 173.076 6.064 173.476 5.4C173.876 4.736 174.448 4.216 175.192 3.84L175.264 3.948C174.744 4.292 174.368 4.788 174.136 5.436C173.912 6.084 173.8 6.772 173.8 7.5C173.8 8.852 174.168 9.908 174.904 10.668C175.64 11.428 176.584 11.808 177.736 11.808C178.888 11.808 179.828 11.428 180.556 10.668C181.292 9.9 181.66 8.892 181.66 7.644C181.66 6.564 181.368 5.652 180.784 4.908C180.208 4.164 179.392 3.792 178.336 3.792C177.864 3.792 177.436 3.876 177.052 4.044C176.356 4.34 175.896 4.828 175.672 5.508C175.608 5.708 175.576 5.88 175.576 6.024C175.576 6.168 175.584 6.284 175.6 6.372L175.48 6.396ZM194.314 14.04C193.978 14.128 193.678 14.172 193.414 14.172C193.158 14.172 192.93 14.156 192.73 14.124C192.53 14.092 192.314 14.028 192.082 13.932C191.858 13.844 191.646 13.74 191.446 13.62C191.246 13.5 191.046 13.352 190.846 13.176C190.478 12.88 190.142 12.56 189.838 12.216C189.542 11.872 188.966 11.228 188.11 10.284C187.254 9.332 186.686 8.7 186.406 8.388C186.126 8.076 185.91 7.912 185.758 7.896V7.776C186.222 7.776 186.53 7.768 186.682 7.752C186.842 7.728 187.01 7.692 187.186 7.644C187.362 7.588 187.51 7.516 187.63 7.428C188.102 7.124 188.338 6.62 188.338 5.916C188.338 5.332 188.206 4.864 187.942 4.512C187.686 4.16 187.322 3.98 186.85 3.972H185.362V11.124C185.362 11.324 185.434 11.5 185.578 11.652C185.73 11.804 185.914 11.88 186.13 11.88H186.274L186.286 12H183.658V11.88H183.814C184.014 11.88 184.19 11.808 184.342 11.664C184.494 11.52 184.574 11.344 184.582 11.136V4.476C184.574 4.268 184.494 4.092 184.342 3.948C184.198 3.796 184.022 3.72 183.814 3.72H183.658V3.6H186.898C187.602 3.6 188.166 3.8 188.59 4.2C189.022 4.592 189.238 5.116 189.238 5.772C189.238 6.42 189.042 6.98 188.65 7.452C188.258 7.916 187.778 8.148 187.21 8.148C187.21 8.148 187.206 8.148 187.198 8.148C187.47 8.436 187.778 8.772 188.122 9.156C189.506 10.684 190.394 11.644 190.786 12.036C191.178 12.428 191.522 12.748 191.818 12.996C192.122 13.252 192.39 13.44 192.622 13.56C193.094 13.816 193.562 13.944 194.026 13.944C194.122 13.944 194.218 13.936 194.314 13.92V14.04ZM190.374 5.988C190.126 5.692 190.002 5.4 190.002 5.112C190.002 4.816 190.07 4.564 190.206 4.356C190.342 4.14 190.562 3.96 190.866 3.816C191.17 3.664 191.514 3.588 191.898 3.588H196.818C197.066 3.588 197.338 3.564 197.634 3.516C197.938 3.468 198.15 3.42 198.27 3.372V4.884L198.15 4.872V4.668C198.15 4.476 198.082 4.312 197.946 4.176C197.81 4.032 197.65 3.956 197.466 3.948H195.186V11.136C195.194 11.424 195.322 11.64 195.57 11.784C195.69 11.848 195.818 11.88 195.954 11.88H196.11V12H193.482V11.88H193.638C193.846 11.88 194.022 11.808 194.166 11.664C194.318 11.52 194.398 11.348 194.406 11.148V3.948H191.898C191.258 3.948 190.794 4.152 190.506 4.56C190.354 4.768 190.278 4.988 190.278 5.22C190.278 5.444 190.342 5.68 190.47 5.928L190.374 5.988ZM205.316 8.628C205.316 8.468 205.26 8.332 205.148 8.22C205.044 8.108 204.912 8.048 204.752 8.04H200.912V11.124C200.912 11.332 200.988 11.512 201.14 11.664C201.292 11.808 201.472 11.88 201.68 11.88H201.836V12H199.208V11.88H199.364C199.572 11.88 199.748 11.808 199.892 11.664C200.044 11.512 200.124 11.332 200.132 11.124V4.404C200.132 4.212 200.052 4.052 199.892 3.924C199.74 3.788 199.564 3.72 199.364 3.72H199.22L199.208 3.6H202.724C203.068 3.6 203.372 3.572 203.636 3.516C203.9 3.46 204.072 3.416 204.152 3.384V4.74H204.032V4.56C204.032 4.4 203.976 4.264 203.864 4.152C203.752 4.032 203.612 3.972 203.444 3.972H200.912V7.68H204.74C204.9 7.672 205.036 7.612 205.148 7.5C205.26 7.388 205.316 7.248 205.316 7.08V6.912H205.436V8.808H205.316V8.628ZM208.996 6.396C208.964 6.292 208.948 6.204 208.948 6.132C208.948 6.052 208.952 5.964 208.96 5.868C208.968 5.772 208.984 5.64 209.008 5.472C209.04 5.304 209.096 5.14 209.176 4.98C209.256 4.812 209.348 4.652 209.452 4.5C209.556 4.348 209.688 4.208 209.848 4.08C210.016 3.952 210.2 3.84 210.4 3.744C210.824 3.536 211.34 3.432 211.948 3.432C213.172 3.432 214.168 3.84 214.936 4.656C215.712 5.464 216.1 6.5 216.1 7.764C216.1 9.028 215.644 10.08 214.732 10.92C213.82 11.752 212.664 12.168 211.264 12.168C209.864 12.168 208.7 11.752 207.772 10.92C206.852 10.088 206.392 9.008 206.392 7.68C206.392 6.824 206.592 6.064 206.992 5.4C207.392 4.736 207.964 4.216 208.708 3.84L208.78 3.948C208.26 4.292 207.884 4.788 207.652 5.436C207.428 6.084 207.316 6.772 207.316 7.5C207.316 8.852 207.684 9.908 208.42 10.668C209.156 11.428 210.1 11.808 211.252 11.808C212.404 11.808 213.344 11.428 214.072 10.668C214.808 9.9 215.176 8.892 215.176 7.644C215.176 6.564 214.884 5.652 214.3 4.908C213.724 4.164 212.908 3.792 211.852 3.792C211.38 3.792 210.952 3.876 210.568 4.044C209.872 4.34 209.412 4.828 209.188 5.508C209.124 5.708 209.092 5.88 209.092 6.024C209.092 6.168 209.1 6.284 209.116 6.372L208.996 6.396ZM219.453 12.228C221.157 12.82 222.433 13.22 223.281 13.428C224.137 13.644 224.869 13.752 225.477 13.752C226.093 13.752 226.769 13.612 227.505 13.332L227.565 13.428C226.589 14.1 225.605 14.436 224.613 14.436C223.597 14.436 222.441 14.12 221.145 13.488C220.145 12.992 219.525 12.692 219.285 12.588C218.429 12.204 217.725 12.008 217.173 12V11.88H217.329C217.537 11.88 217.713 11.808 217.857 11.664C218.009 11.52 218.089 11.34 218.097 11.124V4.476C218.089 4.268 218.009 4.092 217.857 3.948C217.713 3.796 217.537 3.72 217.329 3.72H217.173V3.6H219.801V3.72H219.645C219.437 3.72 219.257 3.796 219.105 3.948C218.953 4.092 218.877 4.268 218.877 4.476V11.4C218.877 11.544 218.885 11.656 218.901 11.736C218.917 11.808 218.969 11.892 219.057 11.988C219.145 12.084 219.277 12.164 219.453 12.228ZM225.134 11.88H225.29V12H222.662V11.88H222.818C223.026 11.88 223.206 11.808 223.358 11.664C223.51 11.512 223.586 11.332 223.586 11.124V3.924L222.302 3.996C221.494 4.044 221.09 4.336 221.09 4.872C221.09 5.088 221.158 5.272 221.294 5.424C221.438 5.576 221.662 5.66 221.966 5.676V5.748C221.854 5.772 221.742 5.784 221.63 5.784C221.278 5.784 221.014 5.644 220.838 5.364C220.734 5.204 220.682 5.028 220.682 4.836C220.682 4.156 221.198 3.76 222.23 3.648C222.238 3.648 222.634 3.624 223.418 3.576C224.21 3.52 224.834 3.448 225.29 3.36L225.314 3.48C224.97 3.536 224.726 3.652 224.582 3.828C224.438 4.004 224.366 4.248 224.366 4.56V11.124C224.374 11.332 224.45 11.512 224.594 11.664C224.746 11.808 224.926 11.88 225.134 11.88ZM229.07 6.396C229.038 6.292 229.022 6.204 229.022 6.132C229.022 6.052 229.026 5.964 229.034 5.868C229.042 5.772 229.058 5.64 229.082 5.472C229.114 5.304 229.17 5.14 229.25 4.98C229.33 4.812 229.422 4.652 229.526 4.5C229.63 4.348 229.762 4.208 229.922 4.08C230.09 3.952 230.274 3.84 230.474 3.744C230.898 3.536 231.414 3.432 232.022 3.432C233.246 3.432 234.242 3.84 235.01 4.656C235.786 5.464 236.174 6.5 236.174 7.764C236.174 9.028 235.718 10.08 234.806 10.92C233.894 11.752 232.738 12.168 231.338 12.168C229.938 12.168 228.774 11.752 227.846 10.92C226.926 10.088 226.466 9.008 226.466 7.68C226.466 6.824 226.666 6.064 227.066 5.4C227.466 4.736 228.038 4.216 228.782 3.84L228.854 3.948C228.334 4.292 227.958 4.788 227.726 5.436C227.502 6.084 227.39 6.772 227.39 7.5C227.39 8.852 227.758 9.908 228.494 10.668C229.23 11.428 230.174 11.808 231.326 11.808C232.478 11.808 233.418 11.428 234.146 10.668C234.882 9.9 235.25 8.892 235.25 7.644C235.25 6.564 234.958 5.652 234.374 4.908C233.798 4.164 232.982 3.792 231.926 3.792C231.454 3.792 231.026 3.876 230.642 4.044C229.946 4.34 229.486 4.828 229.262 5.508C229.198 5.708 229.166 5.88 229.166 6.024C229.166 6.168 229.174 6.284 229.19 6.372L229.07 6.396ZM11.828 40.628C11.828 40.468 11.772 40.332 11.66 40.22C11.556 40.108 11.424 40.048 11.264 40.04H7.424V43.124C7.424 43.332 7.5 43.512 7.652 43.664C7.804 43.808 7.984 43.88 8.192 43.88H8.348V44H5.72V43.88H5.876C6.084 43.88 6.26 43.808 6.404 43.664C6.556 43.512 6.636 43.332 6.644 43.124V36.404C6.644 36.212 6.564 36.052 6.404 35.924C6.252 35.788 6.076 35.72 5.876 35.72H5.732L5.72 35.6H9.236C9.58 35.6 9.884 35.572 10.148 35.516C10.412 35.46 10.584 35.416 10.664 35.384V36.74H10.544V36.56C10.544 36.4 10.488 36.264 10.376 36.152C10.264 36.032 10.124 35.972 9.956 35.972H7.424V39.68H11.252C11.412 39.672 11.548 39.612 11.66 39.5C11.772 39.388 11.828 39.248 11.828 39.08V38.912H11.948V40.808H11.828V40.628ZM22.5932 33.536C22.6572 33.536 22.7252 33.536 22.7972 33.536V33.656C21.9172 33.656 21.2212 33.948 20.7092 34.532C20.1972 35.108 19.9412 35.944 19.9412 37.04V41.036C19.9412 41.972 19.6452 42.728 19.0532 43.304C18.4612 43.88 17.6732 44.168 16.6892 44.168C15.7052 44.168 14.9052 43.884 14.2892 43.316C13.6812 42.74 13.3772 41.984 13.3772 41.048V36.308C13.3772 36.076 13.2732 35.904 13.0652 35.792C12.9692 35.744 12.8612 35.72 12.7412 35.72H12.5492V35.6H14.9852V35.72H14.7932C14.6172 35.72 14.4692 35.776 14.3492 35.888C14.2292 35.992 14.1652 36.128 14.1572 36.296V40.88C14.1572 41.752 14.3892 42.456 14.8532 42.992C15.3252 43.52 15.9412 43.784 16.7012 43.784C17.5092 43.784 18.1572 43.532 18.6452 43.028C19.1332 42.524 19.3772 41.86 19.3772 41.036V37.052C19.3772 35.876 19.6732 34.996 20.2652 34.412C20.8652 33.828 21.6412 33.536 22.5932 33.536ZM24.1953 44.228C25.8993 44.82 27.1753 45.22 28.0233 45.428C28.8793 45.644 29.6113 45.752 30.2193 45.752C30.8353 45.752 31.5113 45.612 32.2473 45.332L32.3073 45.428C31.3313 46.1 30.3473 46.436 29.3553 46.436C28.3393 46.436 27.1833 46.12 25.8873 45.488C24.8873 44.992 24.2673 44.692 24.0273 44.588C23.1713 44.204 22.4673 44.008 21.9153 44V43.88H22.0713C22.2793 43.88 22.4553 43.808 22.5993 43.664C22.7513 43.52 22.8313 43.34 22.8393 43.124V36.476C22.8313 36.268 22.7513 36.092 22.5993 35.948C22.4553 35.796 22.2793 35.72 22.0713 35.72H21.9153V35.6H24.5433V35.72H24.3873C24.1793 35.72 23.9993 35.796 23.8473 35.948C23.6953 36.092 23.6193 36.268 23.6193 36.476V43.4C23.6193 43.544 23.6273 43.656 23.6433 43.736C23.6593 43.808 23.7113 43.892 23.7993 43.988C23.8873 44.084 24.0193 44.164 24.1953 44.228ZM28.8359 44.228C30.5399 44.82 31.8159 45.22 32.6639 45.428C33.5199 45.644 34.2519 45.752 34.8599 45.752C35.4759 45.752 36.1519 45.612 36.8879 45.332L36.9479 45.428C35.9719 46.1 34.9879 46.436 33.9959 46.436C32.9799 46.436 31.8239 46.12 30.5279 45.488C29.5279 44.992 28.9079 44.692 28.6679 44.588C27.8119 44.204 27.1079 44.008 26.5559 44V43.88H26.7119C26.9199 43.88 27.0959 43.808 27.2399 43.664C27.3919 43.52 27.4719 43.34 27.4799 43.124V36.476C27.4719 36.268 27.3919 36.092 27.2399 35.948C27.0959 35.796 26.9199 35.72 26.7119 35.72H26.5559V35.6H29.1839V35.72H29.0279C28.8199 35.72 28.6399 35.796 28.4879 35.948C28.3359 36.092 28.2599 36.268 28.2599 36.476V43.4C28.2599 43.544 28.2679 43.656 28.2839 43.736C28.2999 43.808 28.3519 43.892 28.4399 43.988C28.5279 44.084 28.6599 44.164 28.8359 44.228ZM35.0803 40.808C34.6643 41.352 34.4563 41.94 34.4563 42.572C34.4563 43.324 34.7723 43.908 35.4043 44.324C35.7723 44.572 36.1883 44.696 36.6523 44.696C37.1243 44.696 37.5323 44.604 37.8763 44.42C38.5243 44.084 38.8883 43.52 38.9683 42.728C38.9763 42.672 38.9803 42.616 38.9803 42.56C38.9803 42.264 38.8963 41.944 38.7283 41.6C38.5683 41.256 38.3043 40.94 37.9363 40.652L35.7763 38.948C35.3043 38.58 35.0683 38.104 35.0683 37.52C35.0683 36.936 35.2563 36.444 35.6323 36.044C36.0083 35.636 36.5163 35.432 37.1563 35.432C37.4763 35.432 37.8243 35.472 38.2003 35.552H38.6803L38.7043 37.028H38.5843C38.5763 36.644 38.4363 36.344 38.1643 36.128C37.9003 35.904 37.5643 35.792 37.1563 35.792C36.7563 35.792 36.4203 35.928 36.1483 36.2C35.8763 36.464 35.7403 36.808 35.7403 37.232C35.7403 37.648 35.9163 37.996 36.2683 38.276L38.4883 40.028C39.3683 40.724 39.8083 41.564 39.8083 42.548C39.8083 43.284 39.5163 43.916 38.9323 44.444C38.4283 44.9 37.7563 45.128 36.9163 45.128C36.4043 45.128 35.9483 45.032 35.5483 44.84C34.7963 44.488 34.3443 43.888 34.1923 43.04C34.1683 42.912 34.1563 42.752 34.1563 42.56C34.1563 42.36 34.2123 42.092 34.3243 41.756C34.4363 41.412 34.6523 41.068 34.9723 40.724L35.0803 40.808ZM39.5423 37.988C39.2943 37.692 39.1703 37.4 39.1703 37.112C39.1703 36.816 39.2383 36.564 39.3743 36.356C39.5103 36.14 39.7303 35.96 40.0343 35.816C40.3383 35.664 40.6823 35.588 41.0663 35.588H45.9863C46.2343 35.588 46.5063 35.564 46.8023 35.516C47.1063 35.468 47.3183 35.42 47.4383 35.372V36.884L47.3183 36.872V36.668C47.3183 36.476 47.2503 36.312 47.1143 36.176C46.9783 36.032 46.8183 35.956 46.6343 35.948H44.3543V43.136C44.3623 43.424 44.4903 43.64 44.7383 43.784C44.8583 43.848 44.9863 43.88 45.1223 43.88H45.2783V44H42.6503V43.88H42.8063C43.0143 43.88 43.1903 43.808 43.3343 43.664C43.4863 43.52 43.5663 43.348 43.5743 43.148V35.948H41.0663C40.4263 35.948 39.9623 36.152 39.6743 36.56C39.5223 36.768 39.4463 36.988 39.4463 37.22C39.4463 37.444 39.5103 37.68 39.6383 37.928L39.5423 37.988ZM48.2405 35.192C48.7605 34.976 49.2605 34.868 49.7405 34.868C50.1405 34.868 50.5525 35.016 50.9765 35.312C51.2085 35.472 51.4685 35.784 51.7565 36.248C51.9485 36.568 52.1925 37.148 52.4885 37.988L53.9525 42.14C54.2885 43.068 54.6285 43.804 54.9725 44.348C55.3245 44.9 55.6445 45.312 55.9325 45.584C56.2205 45.864 56.5205 46.06 56.8325 46.172C57.1445 46.284 57.4005 46.34 57.6005 46.34C57.8085 46.34 57.9925 46.324 58.1525 46.292L58.1645 46.412C57.7805 46.54 57.4045 46.604 57.0365 46.604C56.6685 46.604 56.3005 46.508 55.9325 46.316C55.5645 46.132 55.2205 45.872 54.9005 45.536C54.2125 44.84 53.6285 43.78 53.1485 42.356L52.6805 40.988H49.3925L48.5645 43.124C48.5245 43.22 48.5045 43.316 48.5045 43.412C48.5045 43.508 48.5445 43.612 48.6245 43.724C48.7125 43.828 48.8445 43.88 49.0205 43.88H49.1165V44H46.7045V43.88H46.8125C47.0045 43.88 47.1925 43.824 47.3765 43.712C47.5605 43.592 47.7125 43.416 47.8325 43.184L50.8085 36.056C50.3765 35.44 49.8405 35.132 49.2005 35.132C48.9125 35.132 48.6045 35.192 48.2765 35.312L48.2405 35.192ZM49.5245 40.628H52.5605L51.6125 37.832C51.4285 37.296 51.2605 36.876 51.1085 36.572L49.5245 40.628ZM64.4976 39.788C64.4976 41.164 64.1256 42.24 63.3816 43.016C62.6456 43.784 61.6016 44.168 60.2496 44.168C59.3376 44.168 58.5136 43.976 57.7776 43.592C57.0496 43.208 56.4816 42.684 56.0736 42.02C55.6736 41.356 55.4736 40.616 55.4736 39.8C55.4736 38.976 55.6736 38.232 56.0736 37.568C56.4736 36.904 57.0256 36.384 57.7296 36.008C58.4336 35.624 59.2176 35.432 60.0816 35.432C60.6256 35.432 61.1776 35.508 61.7376 35.66C62.3056 35.804 62.7776 36 63.1536 36.248L63.3936 37.94H63.2856C63.1176 37.268 62.7296 36.744 62.1216 36.368C61.5136 35.984 60.8376 35.792 60.0936 35.792C59.0296 35.792 58.1416 36.172 57.4296 36.932C56.7256 37.684 56.3736 38.632 56.3736 39.776C56.3736 40.92 56.7376 41.88 57.4656 42.656C58.2016 43.424 59.1616 43.808 60.3456 43.808C61.5296 43.808 62.4936 43.424 63.2376 42.656C63.9896 41.888 64.3656 40.836 64.3656 39.5H64.4856C64.4936 39.596 64.4976 39.692 64.4976 39.788ZM67.8639 43.88H68.0199V44H65.3919V43.88H65.5479C65.7559 43.88 65.9319 43.808 66.0759 43.664C66.2279 43.512 66.3079 43.332 66.3159 43.124V36.464C66.3079 36.256 66.2279 36.08 66.0759 35.936C65.9319 35.792 65.7559 35.72 65.5479 35.72H65.3919V35.6H68.0199V35.72H67.8639C67.6559 35.72 67.4759 35.792 67.3239 35.936C67.1799 36.08 67.1039 36.256 67.0959 36.464V43.124C67.0959 43.332 67.1719 43.512 67.3239 43.664C67.4759 43.808 67.6559 43.88 67.8639 43.88ZM76.1799 45.8V45.92C75.8759 45.992 75.5719 46.028 75.2679 46.028C73.9559 46.028 72.6839 45.372 71.4519 44.06L67.4799 39.824L70.3119 36.272C70.3759 36.192 70.4079 36.12 70.4079 36.056C70.4079 35.992 70.3959 35.936 70.3719 35.888C70.3079 35.768 70.1919 35.708 70.0239 35.708H69.9039V35.6H72.4359V35.708H72.3879C71.8599 35.708 71.4279 35.896 71.0919 36.272L68.2959 39.5L72.3759 43.856C72.9039 44.424 73.4959 44.888 74.1519 45.248C74.8159 45.616 75.4919 45.8 76.1799 45.8ZM90.0032 32.672C90.0592 32.672 90.1112 32.672 90.1592 32.672V32.792C89.7832 32.808 89.4272 32.896 89.0912 33.056C88.7552 33.216 88.4712 33.408 88.2392 33.632C88.0072 33.848 87.7912 34.112 87.5912 34.424C87.2712 34.92 86.9992 35.488 86.7752 36.128L84.4712 42.812C84.3112 43.316 84.2232 43.76 84.2072 44.144H84.0992L81.6512 37.292L79.7192 43.34C79.4312 44.244 78.9672 44.948 78.3272 45.452C77.8632 45.828 77.3432 46.016 76.7672 46.016C76.5672 46.016 76.3552 45.992 76.1312 45.944L76.1552 45.824C76.2752 45.848 76.4112 45.86 76.5632 45.86C76.7232 45.86 76.9312 45.812 77.1872 45.716C77.4512 45.62 77.7112 45.448 77.9672 45.2C78.4872 44.696 78.8872 44.064 79.1672 43.304L76.7432 36.452C76.6472 36.212 76.4992 36.032 76.2992 35.912C76.0992 35.784 75.8952 35.72 75.6872 35.72H75.5912V35.6H78.2552V35.72H78.1472C77.9792 35.72 77.8512 35.776 77.7632 35.888C77.6832 35.992 77.6432 36.092 77.6432 36.188C77.6432 36.284 77.6552 36.372 77.6792 36.452L79.5032 42.296L81.7352 35.408L81.8432 35.42L84.2192 42.068L85.9952 36.128C86.2032 35.432 86.5232 34.804 86.9552 34.244C87.7552 33.196 88.7712 32.672 90.0032 32.672ZM88.0244 43.88C88.2324 43.88 88.4084 43.808 88.5524 43.664C88.7044 43.512 88.7844 43.332 88.7924 43.124V36.404C88.7924 36.212 88.7164 36.052 88.5644 35.924C88.4124 35.788 88.2324 35.72 88.0244 35.72H87.8804L87.8684 35.6H90.3044C90.5524 35.6 90.8204 35.576 91.1084 35.528C91.4044 35.48 91.6124 35.432 91.7324 35.384V36.896H91.6124V36.68C91.6124 36.488 91.5444 36.324 91.4084 36.188C91.2804 36.052 91.1244 35.98 90.9404 35.972H89.5724V39.68H91.8524C92.0124 39.672 92.1484 39.612 92.2604 39.5C92.3724 39.388 92.4284 39.248 92.4284 39.08V38.912H92.5484V40.808H92.4284V40.628C92.4284 40.468 92.3724 40.332 92.2604 40.22C92.1564 40.108 92.0244 40.048 91.8644 40.04H89.5724V43.628H92.1284C92.7204 43.628 93.1724 43.496 93.4844 43.232C93.7964 42.968 94.0564 42.576 94.2644 42.056H94.3844L93.6884 44H87.8684V43.88H88.0244ZM99.1895 38.768C99.0455 38.92 98.8815 39.032 98.6975 39.104C99.4815 39.216 100.078 39.496 100.486 39.944C100.894 40.384 101.098 40.924 101.098 41.564C101.098 42.34 100.786 42.968 100.162 43.448C99.5375 43.928 98.7175 44.168 97.7015 44.168C96.6855 44.168 95.8895 43.92 95.3135 43.424C94.7375 42.92 94.4495 42.212 94.4495 41.3C94.4495 41.252 94.4495 41.204 94.4495 41.156L94.5815 41.132C94.7415 42.324 95.2375 43.096 96.0695 43.448V36.464C96.0535 36.248 95.9695 36.072 95.8175 35.936C95.6735 35.792 95.4975 35.72 95.2895 35.72H95.1455V35.6H97.1615C97.9135 35.6 98.5135 35.772 98.9615 36.116C99.4175 36.46 99.6455 36.912 99.6455 37.472C99.6455 38.024 99.4935 38.456 99.1895 38.768ZM96.8495 35.984V43.664C97.1135 43.704 97.4175 43.724 97.7615 43.724C98.5295 43.724 99.1255 43.52 99.5495 43.112C99.9815 42.696 100.198 42.16 100.198 41.504C100.198 41.152 100.13 40.84 99.9935 40.568C99.8655 40.296 99.7015 40.084 99.5015 39.932C98.9735 39.524 98.2295 39.32 97.2695 39.32C97.2615 39.32 97.2575 39.32 97.2575 39.32L97.2455 39.212C97.2535 39.212 97.2575 39.212 97.2575 39.212C97.6655 39.212 98.0135 39.08 98.3015 38.816C98.5975 38.544 98.7455 38.128 98.7455 37.568C98.7455 36.512 98.1655 35.984 97.0055 35.984H96.8495ZM103.362 37.352C103.594 36.672 103.982 36.204 104.526 35.948C105.071 35.692 106.035 35.564 107.419 35.564C107.707 35.564 108.435 35.576 109.603 35.6C110.451 35.624 111.199 35.808 111.847 36.152C112.495 36.496 112.999 36.984 113.359 37.616C113.727 38.24 113.911 38.968 113.911 39.8C113.911 41.056 113.511 42.072 112.711 42.848C111.919 43.616 110.883 44 109.603 44H105.535L105.547 43.88H105.691C105.891 43.88 106.063 43.816 106.207 43.688C106.351 43.552 106.435 43.388 106.459 43.196V35.96C105.459 35.984 104.75 36.14 104.334 36.428C104.118 36.58 103.954 36.728 103.842 36.872C103.73 37.008 103.614 37.184 103.494 37.4L103.362 37.352ZM107.239 35.96V43.64H109.603C110.619 43.64 111.439 43.288 112.062 42.584C112.695 41.88 113.011 40.952 113.011 39.8C113.011 39.04 112.867 38.372 112.579 37.796C112.299 37.212 111.899 36.76 111.379 36.44C110.867 36.12 110.275 35.96 109.603 35.96H107.239ZM115.259 43.88C115.467 43.88 115.643 43.808 115.787 43.664C115.939 43.512 116.019 43.332 116.027 43.124V36.404C116.027 36.212 115.951 36.052 115.799 35.924C115.647 35.788 115.467 35.72 115.259 35.72H115.115L115.103 35.6H117.539C117.787 35.6 118.055 35.576 118.343 35.528C118.639 35.48 118.847 35.432 118.967 35.384V36.896H118.847V36.68C118.847 36.488 118.779 36.324 118.643 36.188C118.515 36.052 118.359 35.98 118.175 35.972H116.807V39.68H119.087C119.247 39.672 119.383 39.612 119.495 39.5C119.607 39.388 119.663 39.248 119.663 39.08V38.912H119.783V40.808H119.663V40.628C119.663 40.468 119.607 40.332 119.495 40.22C119.391 40.108 119.259 40.048 119.099 40.04H116.807V43.628H119.363C119.955 43.628 120.407 43.496 120.719 43.232C121.031 42.968 121.291 42.576 121.499 42.056H121.619L120.923 44H115.103V43.88H115.259ZM130.011 33.248C130.283 33.064 130.607 32.92 130.983 32.816C131.359 32.712 131.663 32.66 131.895 32.66C132.127 32.66 132.275 32.66 132.339 32.66V32.78C131.963 32.796 131.611 32.872 131.283 33.008C130.955 33.136 130.683 33.288 130.467 33.464C130.259 33.632 130.055 33.86 129.855 34.148C129.655 34.428 129.499 34.668 129.387 34.868C129.283 35.068 129.159 35.324 129.015 35.636L125.679 42.932C125.383 43.58 125.235 43.992 125.235 44.168H125.127L121.755 36.476C121.643 36.22 121.487 36.032 121.287 35.912C121.095 35.784 120.899 35.72 120.699 35.72H120.603V35.6H123.303V35.72H123.195C122.955 35.72 122.795 35.832 122.715 36.056C122.699 36.104 122.691 36.16 122.691 36.224C122.691 36.288 122.711 36.368 122.751 36.464L125.259 42.752L128.235 35.636C128.707 34.524 129.299 33.728 130.011 33.248ZM130.2 43.88C130.408 43.88 130.584 43.808 130.728 43.664C130.88 43.512 130.96 43.332 130.968 43.124V36.404C130.968 36.212 130.892 36.052 130.74 35.924C130.588 35.788 130.408 35.72 130.2 35.72H130.056L130.044 35.6H132.48C132.728 35.6 132.996 35.576 133.284 35.528C133.58 35.48 133.788 35.432 133.908 35.384V36.896H133.788V36.68C133.788 36.488 133.72 36.324 133.584 36.188C133.456 36.052 133.3 35.98 133.116 35.972H131.748V39.68H134.028C134.188 39.672 134.324 39.612 134.436 39.5C134.548 39.388 134.604 39.248 134.604 39.08V38.912H134.724V40.808H134.604V40.628C134.604 40.468 134.548 40.332 134.436 40.22C134.332 40.108 134.2 40.048 134.04 40.04H131.748V43.628H134.304C134.896 43.628 135.348 43.496 135.66 43.232C135.972 42.968 136.232 42.576 136.44 42.056H136.56L135.864 44H130.044V43.88H130.2ZM139.496 44.228C141.2 44.82 142.476 45.22 143.324 45.428C144.18 45.644 144.912 45.752 145.52 45.752C146.136 45.752 146.812 45.612 147.548 45.332L147.608 45.428C146.632 46.1 145.648 46.436 144.656 46.436C143.64 46.436 142.484 46.12 141.188 45.488C140.188 44.992 139.568 44.692 139.328 44.588C138.472 44.204 137.768 44.008 137.216 44V43.88H137.372C137.58 43.88 137.756 43.808 137.9 43.664C138.052 43.52 138.132 43.34 138.14 43.124V36.476C138.132 36.268 138.052 36.092 137.9 35.948C137.756 35.796 137.58 35.72 137.372 35.72H137.216V35.6H139.844V35.72H139.688C139.48 35.72 139.3 35.796 139.148 35.948C138.996 36.092 138.92 36.268 138.92 36.476V43.4C138.92 43.544 138.928 43.656 138.944 43.736C138.96 43.808 139.012 43.892 139.1 43.988C139.188 44.084 139.32 44.164 139.496 44.228ZM144.402 38.396C144.37 38.292 144.354 38.204 144.354 38.132C144.354 38.052 144.358 37.964 144.366 37.868C144.374 37.772 144.39 37.64 144.414 37.472C144.446 37.304 144.502 37.14 144.582 36.98C144.662 36.812 144.754 36.652 144.858 36.5C144.962 36.348 145.094 36.208 145.254 36.08C145.422 35.952 145.606 35.84 145.806 35.744C146.23 35.536 146.746 35.432 147.354 35.432C148.578 35.432 149.574 35.84 150.342 36.656C151.118 37.464 151.506 38.5 151.506 39.764C151.506 41.028 151.05 42.08 150.138 42.92C149.226 43.752 148.07 44.168 146.67 44.168C145.27 44.168 144.106 43.752 143.178 42.92C142.258 42.088 141.798 41.008 141.798 39.68C141.798 38.824 141.998 38.064 142.398 37.4C142.798 36.736 143.37 36.216 144.114 35.84L144.186 35.948C143.666 36.292 143.29 36.788 143.058 37.436C142.834 38.084 142.722 38.772 142.722 39.5C142.722 40.852 143.09 41.908 143.826 42.668C144.562 43.428 145.506 43.808 146.658 43.808C147.81 43.808 148.75 43.428 149.478 42.668C150.214 41.9 150.582 40.892 150.582 39.644C150.582 38.564 150.29 37.652 149.706 36.908C149.13 36.164 148.314 35.792 147.258 35.792C146.786 35.792 146.358 35.876 145.974 36.044C145.278 36.34 144.818 36.828 144.594 37.508C144.53 37.708 144.498 37.88 144.498 38.024C144.498 38.168 144.506 38.284 144.522 38.372L144.402 38.396ZM156.083 35.408C156.779 35.408 157.359 35.576 157.823 35.912C158.447 36.36 158.759 37.06 158.759 38.012C158.759 38.7 158.567 39.288 158.183 39.776C157.767 40.296 157.187 40.556 156.443 40.556C156.051 40.556 155.695 40.464 155.375 40.28C155.055 40.088 154.867 39.764 154.811 39.308L154.919 39.272C155.007 39.616 155.211 39.856 155.531 39.992C155.747 40.088 155.939 40.136 156.107 40.136C156.763 40.136 157.239 39.88 157.535 39.368C157.751 38.992 157.859 38.544 157.859 38.024C157.859 37.192 157.627 36.592 157.163 36.224C156.811 35.936 156.363 35.792 155.819 35.792C155.691 35.792 155.579 35.8 155.483 35.816C155.395 35.824 154.995 35.888 154.283 36.008V43.124C154.291 43.34 154.371 43.52 154.523 43.664C154.675 43.808 154.851 43.88 155.051 43.88H155.207V44H152.579V43.88H152.735C152.935 43.88 153.111 43.808 153.263 43.664C153.415 43.52 153.495 43.34 153.503 43.124V36.632C153.503 36.424 153.443 36.264 153.323 36.152C153.203 36.032 153.047 35.972 152.855 35.972C152.815 35.972 152.775 35.976 152.735 35.984L152.591 35.996L152.567 35.876C152.983 35.836 153.539 35.76 154.235 35.648C154.939 35.528 155.375 35.46 155.543 35.444C155.711 35.42 155.891 35.408 156.083 35.408ZM160.06 43.88C160.268 43.88 160.444 43.808 160.588 43.664C160.74 43.512 160.82 43.332 160.828 43.124V36.404C160.828 36.212 160.752 36.052 160.6 35.924C160.448 35.788 160.268 35.72 160.06 35.72H159.916L159.904 35.6H162.34C162.588 35.6 162.856 35.576 163.144 35.528C163.44 35.48 163.648 35.432 163.768 35.384V36.896H163.648V36.68C163.648 36.488 163.58 36.324 163.444 36.188C163.316 36.052 163.16 35.98 162.976 35.972H161.608V39.68H163.888C164.048 39.672 164.184 39.612 164.296 39.5C164.408 39.388 164.464 39.248 164.464 39.08V38.912H164.584V40.808H164.464V40.628C164.464 40.468 164.408 40.332 164.296 40.22C164.192 40.108 164.06 40.048 163.9 40.04H161.608V43.628H164.164C164.756 43.628 165.208 43.496 165.52 43.232C165.832 42.968 166.092 42.576 166.3 42.056H166.42L165.724 44H159.904V43.88H160.06ZM177.731 46.04C177.395 46.128 177.095 46.172 176.831 46.172C176.575 46.172 176.347 46.156 176.147 46.124C175.947 46.092 175.731 46.028 175.499 45.932C175.275 45.844 175.063 45.74 174.863 45.62C174.663 45.5 174.463 45.352 174.263 45.176C173.895 44.88 173.559 44.56 173.255 44.216C172.959 43.872 172.383 43.228 171.527 42.284C170.671 41.332 170.103 40.7 169.823 40.388C169.543 40.076 169.327 39.912 169.175 39.896V39.776C169.639 39.776 169.947 39.768 170.099 39.752C170.259 39.728 170.427 39.692 170.603 39.644C170.779 39.588 170.927 39.516 171.047 39.428C171.519 39.124 171.755 38.62 171.755 37.916C171.755 37.332 171.623 36.864 171.359 36.512C171.103 36.16 170.739 35.98 170.267 35.972H168.779V43.124C168.779 43.324 168.851 43.5 168.995 43.652C169.147 43.804 169.331 43.88 169.547 43.88H169.691L169.703 44H167.075V43.88H167.231C167.431 43.88 167.607 43.808 167.759 43.664C167.911 43.52 167.991 43.344 167.999 43.136V36.476C167.991 36.268 167.911 36.092 167.759 35.948C167.615 35.796 167.439 35.72 167.231 35.72H167.075V35.6H170.315C171.019 35.6 171.583 35.8 172.007 36.2C172.439 36.592 172.655 37.116 172.655 37.772C172.655 38.42 172.459 38.98 172.067 39.452C171.675 39.916 171.195 40.148 170.627 40.148C170.627 40.148 170.623 40.148 170.615 40.148C170.887 40.436 171.195 40.772 171.539 41.156C172.923 42.684 173.811 43.644 174.203 44.036C174.595 44.428 174.939 44.748 175.235 44.996C175.539 45.252 175.807 45.44 176.039 45.56C176.511 45.816 176.979 45.944 177.443 45.944C177.539 45.944 177.635 45.936 177.731 45.92V46.04ZM5.864 75.88H6.02V76H3.392V75.88H3.548C3.756 75.88 3.936 75.808 4.088 75.664C4.24 75.512 4.316 75.332 4.316 75.124V67.924L3.032 67.996C2.224 68.044 1.82 68.336 1.82 68.872C1.82 69.088 1.888 69.272 2.024 69.424C2.168 69.576 2.392 69.66 2.696 69.676V69.748C2.584 69.772 2.472 69.784 2.36 69.784C2.008 69.784 1.744 69.644 1.568 69.364C1.464 69.204 1.412 69.028 1.412 68.836C1.412 68.156 1.928 67.76 2.96 67.648C2.968 67.648 3.364 67.624 4.148 67.576C4.94 67.52 5.564 67.448 6.02 67.36L6.044 67.48C5.7 67.536 5.456 67.652 5.312 67.828C5.168 68.004 5.096 68.248 5.096 68.56V75.124C5.104 75.332 5.18 75.512 5.324 75.664C5.476 75.808 5.656 75.88 5.864 75.88ZM7.13094 69.94C7.27494 69.26 7.34694 68.764 7.34694 68.452C7.34694 68.132 7.33894 67.848 7.32294 67.6L8.16294 67.432C8.16294 67.472 8.16294 67.556 8.16294 67.684C8.16294 67.812 8.13894 68.024 8.09094 68.32C8.05094 68.608 7.95494 68.928 7.80294 69.28C7.65894 69.632 7.47094 69.872 7.23894 70L7.13094 69.94ZM18.8352 75.88H19.0272V76H16.4232V75.892H16.6032C16.7392 75.892 16.8552 75.84 16.9512 75.736C17.0472 75.632 17.0872 75.512 17.0712 75.376L16.5312 69.34L14.0112 74.944C13.7872 75.432 13.6512 75.84 13.6032 76.168H13.4832L10.4112 69.508L9.89516 75.376C9.87916 75.504 9.91916 75.624 10.0152 75.736C10.1112 75.84 10.2272 75.892 10.3632 75.892H10.5432V76H8.21516V75.88H8.40716C8.63116 75.88 8.82316 75.812 8.98316 75.676C9.15116 75.54 9.25116 75.356 9.28316 75.124L10.1832 67.432H10.3032L13.6512 74.668L16.9272 67.432H17.0352L17.9592 75.124C17.9912 75.356 18.0912 75.54 18.2592 75.676C18.4272 75.812 18.6192 75.88 18.8352 75.88ZM23.6311 72.808C23.2151 73.352 23.0071 73.94 23.0071 74.572C23.0071 75.324 23.3231 75.908 23.9551 76.324C24.3231 76.572 24.7391 76.696 25.2031 76.696C25.6751 76.696 26.0831 76.604 26.4271 76.42C27.0751 76.084 27.4391 75.52 27.5191 74.728C27.5271 74.672 27.5311 74.616 27.5311 74.56C27.5311 74.264 27.4471 73.944 27.2791 73.6C27.1191 73.256 26.8551 72.94 26.4871 72.652L24.3271 70.948C23.8551 70.58 23.6191 70.104 23.6191 69.52C23.6191 68.936 23.8071 68.444 24.1831 68.044C24.5591 67.636 25.0671 67.432 25.7071 67.432C26.0271 67.432 26.3751 67.472 26.7511 67.552H27.2311L27.2551 69.028H27.1351C27.1271 68.644 26.9871 68.344 26.7151 68.128C26.4511 67.904 26.1151 67.792 25.7071 67.792C25.3071 67.792 24.9711 67.928 24.6991 68.2C24.4271 68.464 24.2911 68.808 24.2911 69.232C24.2911 69.648 24.4671 69.996 24.8191 70.276L27.0391 72.028C27.9191 72.724 28.3591 73.564 28.3591 74.548C28.3591 75.284 28.0671 75.916 27.4831 76.444C26.9791 76.9 26.3071 77.128 25.4671 77.128C24.9551 77.128 24.4991 77.032 24.0991 76.84C23.3471 76.488 22.8951 75.888 22.7431 75.04C22.7191 74.912 22.7071 74.752 22.7071 74.56C22.7071 74.36 22.7631 74.092 22.8751 73.756C22.9871 73.412 23.2031 73.068 23.5231 72.724L23.6311 72.808ZM37.3811 75.88H37.4771V76H34.7771V75.88H34.8851C35.0531 75.88 35.1771 75.828 35.2571 75.724C35.3451 75.612 35.3891 75.508 35.3891 75.412C35.3891 75.316 35.3731 75.22 35.3411 75.124L34.5731 73.084H31.3331L30.5291 75.136C30.4971 75.232 30.4811 75.328 30.4811 75.424C30.4811 75.512 30.5211 75.612 30.6011 75.724C30.6891 75.828 30.8171 75.88 30.9851 75.88H31.0931V76H28.6811V75.88H28.7891C28.9891 75.88 29.1851 75.816 29.3771 75.688C29.5691 75.56 29.7251 75.372 29.8451 75.124L32.5571 68.668C32.8531 68.02 33.0011 67.608 33.0011 67.432H33.1091L36.3251 75.124C36.4371 75.372 36.5891 75.56 36.7811 75.688C36.9731 75.816 37.1731 75.88 37.3811 75.88ZM31.4771 72.724H34.4291L32.9891 68.872L31.4771 72.724ZM38.208 75.88C38.416 75.88 38.592 75.808 38.736 75.664C38.888 75.512 38.968 75.332 38.976 75.124V68.464C38.968 68.256 38.888 68.08 38.736 67.936C38.592 67.792 38.416 67.72 38.208 67.72H38.052V67.6H40.68V67.72H40.524C40.316 67.72 40.136 67.792 39.984 67.936C39.84 68.08 39.764 68.256 39.756 68.464V75.124C39.756 75.332 39.832 75.512 39.984 75.664C40.136 75.808 40.316 75.88 40.524 75.88H40.68V76H38.052V75.88H38.208ZM47.0507 67.732V68.74H46.9307V68.56C46.9307 68.4 46.8747 68.264 46.7627 68.152C46.6507 68.032 46.5107 67.972 46.3427 67.972H43.8107V71.68H45.8387C45.9987 71.672 46.1347 71.612 46.2467 71.5C46.3587 71.388 46.4147 71.252 46.4147 71.092V70.912H46.5347V72.808H46.4147V72.628C46.4147 72.468 46.3587 72.332 46.2467 72.22C46.1427 72.108 46.0107 72.048 45.8507 72.04H43.8107V75.124C43.8107 75.332 43.8867 75.512 44.0387 75.664C44.1907 75.808 44.3707 75.88 44.5787 75.88H44.7347V76H42.1067V75.88H42.2627C42.4707 75.88 42.6467 75.808 42.7907 75.664C42.9427 75.512 43.0227 75.332 43.0307 75.124V68.404C43.0307 68.212 42.9507 68.052 42.7907 67.924C42.6387 67.788 42.4627 67.72 42.2627 67.72H42.1187L42.1067 67.6H45.6227C45.8707 67.6 46.1387 67.576 46.4267 67.528C46.7227 67.48 46.9307 67.432 47.0507 67.384V67.732ZM61.5229 65.536C61.5869 65.536 61.6549 65.536 61.7269 65.536V65.656C60.8469 65.656 60.1509 65.948 59.6389 66.532C59.1269 67.108 58.8709 67.944 58.8709 69.04V73.036C58.8709 73.972 58.5749 74.728 57.9829 75.304C57.3909 75.88 56.6029 76.168 55.6189 76.168C54.6349 76.168 53.8349 75.884 53.2189 75.316C52.6109 74.74 52.3069 73.984 52.3069 73.048V68.308C52.3069 68.076 52.2029 67.904 51.9949 67.792C51.8989 67.744 51.7909 67.72 51.6709 67.72H51.4789V67.6H53.9149V67.72H53.7229C53.5469 67.72 53.3989 67.776 53.2789 67.888C53.1589 67.992 53.0949 68.128 53.0869 68.296V72.88C53.0869 73.752 53.3189 74.456 53.7829 74.992C54.2549 75.52 54.8709 75.784 55.6309 75.784C56.4389 75.784 57.0869 75.532 57.5749 75.028C58.0629 74.524 58.3069 73.86 58.3069 73.036V69.052C58.3069 67.876 58.6029 66.996 59.1949 66.412C59.7949 65.828 60.5709 65.536 61.5229 65.536ZM61.1533 75.88C61.3613 75.88 61.5373 75.808 61.6813 75.664C61.8333 75.512 61.9133 75.332 61.9213 75.124V68.476C61.9133 68.268 61.8333 68.092 61.6813 67.948C61.5373 67.796 61.3613 67.72 61.1533 67.72H60.9973V67.6H63.6253V67.72H63.4693C63.1813 67.72 62.9613 67.844 62.8093 68.092C62.7373 68.212 62.7013 68.34 62.7013 68.476V75.628H64.4173C65.0093 75.628 65.4613 75.496 65.7733 75.232C66.0853 74.968 66.3453 74.576 66.5533 74.056H66.6733L65.9773 76H60.9973V75.88H61.1533ZM67.7158 75.88C67.9238 75.88 68.0998 75.808 68.2438 75.664C68.3958 75.512 68.4758 75.332 68.4838 75.124V68.476C68.4758 68.268 68.3958 68.092 68.2438 67.948C68.0998 67.796 67.9238 67.72 67.7158 67.72H67.5598V67.6H70.1878V67.72H70.0318C69.7438 67.72 69.5238 67.844 69.3718 68.092C69.2998 68.212 69.2638 68.34 69.2638 68.476V75.628H70.9798C71.5718 75.628 72.0238 75.496 72.3358 75.232C72.6478 74.968 72.9078 74.576 73.1158 74.056H73.2358L72.5398 76H67.5598V75.88H67.7158ZM82.1701 75.88H82.2661V76H79.5661V75.88H79.6741C79.8421 75.88 79.9661 75.828 80.0461 75.724C80.1341 75.612 80.1781 75.508 80.1781 75.412C80.1781 75.316 80.1621 75.22 80.1301 75.124L79.3621 73.084H76.1221L75.3181 75.136C75.2861 75.232 75.2701 75.328 75.2701 75.424C75.2701 75.512 75.3101 75.612 75.3901 75.724C75.4781 75.828 75.6061 75.88 75.7741 75.88H75.8821V76H73.4701V75.88H73.5781C73.7781 75.88 73.9741 75.816 74.1661 75.688C74.3581 75.56 74.5141 75.372 74.6341 75.124L77.3461 68.668C77.6421 68.02 77.7901 67.608 77.7901 67.432H77.8981L81.1141 75.124C81.2261 75.372 81.3781 75.56 81.5701 75.688C81.7621 75.816 81.9621 75.88 82.1701 75.88ZM76.2661 72.724H79.2181L77.7781 68.872L76.2661 72.724ZM88.6851 75.88C88.8931 75.88 89.0691 75.808 89.2131 75.664C89.3651 75.512 89.4451 75.336 89.4531 75.136V72.028H84.5451V75.136C84.5451 75.344 84.6211 75.52 84.7731 75.664C84.9251 75.808 85.1051 75.88 85.3131 75.88H85.4691V76H82.8411V75.88H82.9971C83.2051 75.88 83.3811 75.808 83.5251 75.664C83.6771 75.52 83.7571 75.344 83.7651 75.136V68.464C83.7571 68.256 83.6771 68.08 83.5251 67.936C83.3811 67.792 83.2051 67.72 82.9971 67.72H82.8411V67.6H85.4691V67.72H85.3131C85.1051 67.72 84.9251 67.792 84.7731 67.936C84.6291 68.08 84.5531 68.256 84.5451 68.464V71.668H89.4531V68.464C89.4451 68.176 89.3171 67.96 89.0691 67.816C88.9491 67.752 88.8211 67.72 88.6851 67.72H88.5291V67.6H91.1571V67.72H91.0011C90.7931 67.72 90.6131 67.796 90.4611 67.948C90.3171 68.092 90.2411 68.268 90.2331 68.476V75.136C90.2411 75.344 90.3171 75.52 90.4611 75.664C90.6131 75.808 90.7931 75.88 91.0011 75.88H91.1571V76H88.5291V75.88H88.6851ZM103.475 75.88H103.571V76H100.871V75.88H100.979C101.147 75.88 101.271 75.828 101.351 75.724C101.439 75.612 101.483 75.508 101.483 75.412C101.483 75.316 101.467 75.22 101.435 75.124L100.667 73.084H97.4268L96.6228 75.136C96.5908 75.232 96.5748 75.328 96.5748 75.424C96.5748 75.512 96.6148 75.612 96.6948 75.724C96.7828 75.828 96.9108 75.88 97.0788 75.88H97.1868V76H94.7748V75.88H94.8828C95.0828 75.88 95.2788 75.816 95.4708 75.688C95.6628 75.56 95.8188 75.372 95.9388 75.124L98.6508 68.668C98.9468 68.02 99.0948 67.608 99.0948 67.432H99.2028L102.419 75.124C102.531 75.372 102.683 75.56 102.875 75.688C103.067 75.816 103.267 75.88 103.475 75.88ZM97.5708 72.724H100.523L99.0828 68.872L97.5708 72.724ZM110.65 67.408C111.346 67.408 111.926 67.576 112.39 67.912C113.014 68.36 113.326 69.06 113.326 70.012C113.326 70.7 113.134 71.288 112.75 71.776C112.334 72.296 111.754 72.556 111.01 72.556C110.618 72.556 110.262 72.464 109.942 72.28C109.622 72.088 109.434 71.764 109.378 71.308L109.486 71.272C109.574 71.616 109.778 71.856 110.098 71.992C110.314 72.088 110.506 72.136 110.674 72.136C111.33 72.136 111.806 71.88 112.102 71.368C112.318 70.992 112.426 70.544 112.426 70.024C112.426 69.192 112.194 68.592 111.73 68.224C111.378 67.936 110.93 67.792 110.386 67.792C110.258 67.792 110.146 67.8 110.05 67.816C109.962 67.824 109.562 67.888 108.85 68.008V75.124C108.858 75.34 108.938 75.52 109.09 75.664C109.242 75.808 109.418 75.88 109.618 75.88H109.774V76H107.146V75.88H107.302C107.502 75.88 107.678 75.808 107.83 75.664C107.982 75.52 108.062 75.34 108.07 75.124V68.632C108.07 68.424 108.01 68.264 107.89 68.152C107.77 68.032 107.614 67.972 107.422 67.972C107.382 67.972 107.342 67.976 107.302 67.984L107.158 67.996L107.134 67.876C107.55 67.836 108.106 67.76 108.802 67.648C109.506 67.528 109.942 67.46 110.11 67.444C110.278 67.42 110.458 67.408 110.65 67.408ZM121.522 75.88H121.618V76H118.918V75.88H119.026C119.194 75.88 119.318 75.828 119.398 75.724C119.486 75.612 119.53 75.508 119.53 75.412C119.53 75.316 119.514 75.22 119.482 75.124L118.714 73.084H115.474L114.67 75.136C114.638 75.232 114.622 75.328 114.622 75.424C114.622 75.512 114.662 75.612 114.742 75.724C114.83 75.828 114.958 75.88 115.126 75.88H115.234V76H112.822V75.88H112.93C113.13 75.88 113.326 75.816 113.518 75.688C113.71 75.56 113.866 75.372 113.986 75.124L116.698 68.668C116.994 68.02 117.142 67.608 117.142 67.432H117.25L120.466 75.124C120.578 75.372 120.73 75.56 120.922 75.688C121.114 75.816 121.314 75.88 121.522 75.88ZM115.618 72.724H118.57L117.13 68.872L115.618 72.724ZM122.205 75.508C122.181 75.396 122.169 75.18 122.169 74.86C122.169 74.54 122.229 74.2 122.349 73.84H122.457C122.449 73.928 122.445 74.016 122.445 74.104C122.445 74.592 122.593 75 122.889 75.328C123.185 75.648 123.577 75.808 124.065 75.808C124.569 75.808 124.981 75.656 125.301 75.352C125.629 75.048 125.793 74.668 125.793 74.212C125.793 73.748 125.637 73.372 125.325 73.084L123.021 70.948C122.589 70.548 122.373 70.064 122.373 69.496C122.373 68.928 122.561 68.444 122.937 68.044C123.321 67.636 123.837 67.432 124.485 67.432C124.789 67.432 125.133 67.472 125.517 67.552H125.985V69.028H125.877C125.877 68.652 125.745 68.352 125.481 68.128C125.225 67.904 124.893 67.792 124.485 67.792C124.077 67.792 123.733 67.928 123.453 68.2C123.181 68.472 123.045 68.812 123.045 69.22C123.045 69.628 123.205 69.98 123.525 70.276L125.889 72.46C126.289 72.828 126.489 73.332 126.489 73.972C126.489 74.612 126.285 75.14 125.877 75.556C125.469 75.964 124.925 76.168 124.245 76.168C123.893 76.168 123.517 76.112 123.117 76C122.725 75.896 122.421 75.732 122.205 75.508ZM127.912 75.508C127.888 75.396 127.876 75.18 127.876 74.86C127.876 74.54 127.936 74.2 128.056 73.84H128.164C128.156 73.928 128.152 74.016 128.152 74.104C128.152 74.592 128.3 75 128.596 75.328C128.892 75.648 129.284 75.808 129.772 75.808C130.276 75.808 130.688 75.656 131.008 75.352C131.336 75.048 131.5 74.668 131.5 74.212C131.5 73.748 131.344 73.372 131.032 73.084L128.728 70.948C128.296 70.548 128.08 70.064 128.08 69.496C128.08 68.928 128.268 68.444 128.644 68.044C129.028 67.636 129.544 67.432 130.192 67.432C130.496 67.432 130.84 67.472 131.224 67.552H131.692V69.028H131.584C131.584 68.652 131.452 68.352 131.188 68.128C130.932 67.904 130.6 67.792 130.192 67.792C129.784 67.792 129.44 67.928 129.16 68.2C128.888 68.472 128.752 68.812 128.752 69.22C128.752 69.628 128.912 69.98 129.232 70.276L131.596 72.46C131.996 72.828 132.196 73.332 132.196 73.972C132.196 74.612 131.992 75.14 131.584 75.556C131.176 75.964 130.632 76.168 129.952 76.168C129.6 76.168 129.224 76.112 128.824 76C128.432 75.896 128.128 75.732 127.912 75.508ZM133.763 75.88C133.971 75.88 134.147 75.808 134.291 75.664C134.443 75.512 134.523 75.332 134.531 75.124V68.464C134.523 68.256 134.443 68.08 134.291 67.936C134.147 67.792 133.971 67.72 133.763 67.72H133.607V67.6H136.235V67.72H136.079C135.871 67.72 135.691 67.792 135.539 67.936C135.395 68.08 135.319 68.256 135.311 68.464V75.124C135.311 75.332 135.387 75.512 135.539 75.664C135.691 75.808 135.871 75.88 136.079 75.88H136.235V76H133.607V75.88H133.763ZM138.471 68.644C139.327 67.836 140.435 67.432 141.795 67.432C143.163 67.432 144.275 67.836 145.131 68.644C145.987 69.444 146.415 70.496 146.415 71.8C146.415 73.104 145.987 74.16 145.131 74.968C144.275 75.768 143.163 76.168 141.795 76.168C140.435 76.168 139.327 75.768 138.471 74.968C137.615 74.16 137.187 73.104 137.187 71.8C137.187 70.496 137.615 69.444 138.471 68.644ZM139.119 74.704C139.799 75.44 140.691 75.808 141.795 75.808C142.899 75.808 143.787 75.44 144.459 74.704C145.139 73.968 145.479 73 145.479 71.8C145.479 70.6 145.139 69.632 144.459 68.896C143.787 68.16 142.899 67.792 141.795 67.792C140.691 67.792 139.799 68.16 139.119 68.896C138.447 69.632 138.111 70.6 138.111 71.8C138.111 73 138.447 73.968 139.119 74.704ZM156.215 67.72C156.015 67.72 155.843 67.792 155.699 67.936C155.555 68.072 155.479 68.24 155.471 68.44V74.632C155.471 75.096 155.499 75.536 155.555 75.952L155.579 76.168H155.471L148.931 69.184V75.16C148.931 75.36 149.003 75.532 149.147 75.676C149.291 75.812 149.463 75.88 149.663 75.88H149.891V76H147.419V75.88H147.647C147.847 75.88 148.019 75.812 148.163 75.676C148.307 75.532 148.379 75.356 148.379 75.148V68.92C148.379 68.432 148.351 67.996 148.295 67.612L148.271 67.42H148.391L154.931 74.404V68.452C154.923 68.244 154.847 68.072 154.703 67.936C154.559 67.792 154.387 67.72 154.187 67.72H153.959V67.6H156.431V67.72H156.215ZM165.385 75.88H165.481V76H162.781V75.88H162.889C163.057 75.88 163.181 75.828 163.261 75.724C163.349 75.612 163.393 75.508 163.393 75.412C163.393 75.316 163.377 75.22 163.345 75.124L162.577 73.084H159.337L158.533 75.136C158.501 75.232 158.485 75.328 158.485 75.424C158.485 75.512 158.525 75.612 158.605 75.724C158.693 75.828 158.821 75.88 158.989 75.88H159.097V76H156.685V75.88H156.793C156.993 75.88 157.189 75.816 157.381 75.688C157.573 75.56 157.729 75.372 157.849 75.124L160.561 68.668C160.857 68.02 161.005 67.608 161.005 67.432H161.113L164.329 75.124C164.441 75.372 164.593 75.56 164.785 75.688C164.977 75.816 165.177 75.88 165.385 75.88ZM159.481 72.724H162.433L160.993 68.872L159.481 72.724ZM171.56 68.668C171.56 68.476 171.492 68.312 171.356 68.176C171.22 68.032 171.06 67.956 170.876 67.948H168.596V75.136C168.604 75.344 168.68 75.52 168.824 75.664C168.976 75.808 169.156 75.88 169.364 75.88H169.52V76H166.892V75.88H167.048C167.256 75.88 167.432 75.808 167.576 75.664C167.728 75.52 167.808 75.348 167.816 75.148V67.948H165.536C165.344 67.956 165.18 68.032 165.044 68.176C164.916 68.312 164.852 68.476 164.852 68.668V68.872L164.732 68.884V67.372C164.852 67.42 165.06 67.468 165.356 67.516C165.652 67.564 165.924 67.588 166.172 67.588H170.228C170.62 67.588 170.944 67.56 171.2 67.504C171.464 67.44 171.624 67.396 171.68 67.372V68.884L171.56 68.872V68.668ZM172.786 75.88C172.994 75.88 173.17 75.808 173.314 75.664C173.466 75.512 173.546 75.332 173.554 75.124V68.404C173.554 68.212 173.478 68.052 173.326 67.924C173.174 67.788 172.994 67.72 172.786 67.72H172.642L172.63 67.6H176.146C176.394 67.6 176.662 67.576 176.95 67.528C177.246 67.48 177.454 67.432 177.574 67.384V68.896H177.454V68.68C177.454 68.488 177.386 68.324 177.25 68.188C177.122 68.052 176.966 67.98 176.782 67.972H174.334V71.68H176.362C176.522 71.672 176.658 71.612 176.77 71.5C176.882 71.388 176.938 71.248 176.938 71.08V70.912H177.058V72.808H176.938V72.628C176.938 72.468 176.882 72.332 176.77 72.22C176.666 72.108 176.534 72.048 176.374 72.04H174.334V75.628H176.05C176.642 75.628 177.094 75.496 177.406 75.232C177.718 74.968 177.978 74.576 178.186 74.056H178.306L177.61 76H172.63V75.88H172.786ZM0.8 85.352C1.032 84.672 1.42 84.204 1.964 83.948C2.508 83.692 3.472 83.564 4.856 83.564C5.144 83.564 5.872 83.576 7.04 83.6C7.888 83.624 8.636 83.808 9.284 84.152C9.932 84.496 10.436 84.984 10.796 85.616C11.164 86.24 11.348 86.968 11.348 87.8C11.348 89.056 10.948 90.072 10.148 90.848C9.356 91.616 8.32 92 7.04 92H2.972L2.984 91.88H3.128C3.328 91.88 3.5 91.816 3.644 91.688C3.788 91.552 3.872 91.388 3.896 91.196V83.96C2.896 83.984 2.188 84.14 1.772 84.428C1.556 84.58 1.392 84.728 1.28 84.872C1.168 85.008 1.052 85.184 0.932 85.4L0.8 85.352ZM4.676 83.96V91.64H7.04C8.056 91.64 8.876 91.288 9.5 90.584C10.132 89.88 10.448 88.952 10.448 87.8C10.448 87.04 10.304 86.372 10.016 85.796C9.736 85.212 9.336 84.76 8.816 84.44C8.304 84.12 7.712 83.96 7.04 83.96H4.676ZM12.6963 91.88C12.9043 91.88 13.0803 91.808 13.2243 91.664C13.3763 91.512 13.4563 91.332 13.4643 91.124V84.404C13.4643 84.212 13.3883 84.052 13.2363 83.924C13.0843 83.788 12.9043 83.72 12.6963 83.72H12.5523L12.5403 83.6H16.0563C16.3043 83.6 16.5723 83.576 16.8603 83.528C17.1563 83.48 17.3643 83.432 17.4843 83.384V84.896H17.3643V84.68C17.3643 84.488 17.2963 84.324 17.1603 84.188C17.0323 84.052 16.8763 83.98 16.6923 83.972H14.2443V87.68H16.2723C16.4323 87.672 16.5683 87.612 16.6803 87.5C16.7923 87.388 16.8483 87.248 16.8483 87.08V86.912H16.9683V88.808H16.8483V88.628C16.8483 88.468 16.7923 88.332 16.6803 88.22C16.5763 88.108 16.4443 88.048 16.2843 88.04H14.2443V91.628H15.9603C16.5523 91.628 17.0043 91.496 17.3163 91.232C17.6283 90.968 17.8883 90.576 18.0963 90.056H18.2163L17.5203 92H12.5403V91.88H12.6963ZM25.3461 83.6H27.7581V83.72H27.6501C27.4501 83.72 27.2541 83.784 27.0621 83.912C26.8701 84.032 26.7181 84.216 26.6061 84.464L23.7141 90.932C23.4181 91.58 23.2701 91.992 23.2701 92.168H23.1621L19.7901 84.476C19.6781 84.22 19.5221 84.032 19.3221 83.912C19.1301 83.784 18.9341 83.72 18.7341 83.72H18.6381V83.6H21.3381V83.72H21.2301C21.0621 83.72 20.9341 83.776 20.8461 83.888C20.7661 83.992 20.7261 84.092 20.7261 84.188C20.7261 84.276 20.7461 84.368 20.7861 84.464L23.2941 90.752L25.9101 84.464C25.9421 84.368 25.9581 84.276 25.9581 84.188C25.9581 84.092 25.9141 83.992 25.8261 83.888C25.7461 83.776 25.6221 83.72 25.4541 83.72H25.3461V83.6ZM28.5049 91.88C28.7129 91.88 28.8889 91.808 29.0329 91.664C29.1849 91.512 29.2649 91.332 29.2729 91.124V84.404C29.2729 84.212 29.1969 84.052 29.0449 83.924C28.8929 83.788 28.7129 83.72 28.5049 83.72H28.3609L28.3489 83.6H31.8649C32.1129 83.6 32.3809 83.576 32.6689 83.528C32.9649 83.48 33.1729 83.432 33.2929 83.384V84.896H33.1729V84.68C33.1729 84.488 33.1049 84.324 32.9689 84.188C32.8409 84.052 32.6849 83.98 32.5009 83.972H30.0529V87.68H32.0809C32.2409 87.672 32.3769 87.612 32.4889 87.5C32.6009 87.388 32.6569 87.248 32.6569 87.08V86.912H32.7769V88.808H32.6569V88.628C32.6569 88.468 32.6009 88.332 32.4889 88.22C32.3849 88.108 32.2529 88.048 32.0929 88.04H30.0529V91.628H31.7689C32.3609 91.628 32.8129 91.496 33.1249 91.232C33.4369 90.968 33.6969 90.576 33.9049 90.056H34.0249L33.3289 92H28.3489V91.88H28.5049ZM35.3135 91.88C35.5215 91.88 35.6975 91.808 35.8415 91.664C35.9935 91.512 36.0735 91.332 36.0815 91.124V84.476C36.0735 84.268 35.9935 84.092 35.8415 83.948C35.6975 83.796 35.5215 83.72 35.3135 83.72H35.1575V83.6H37.7855V83.72H37.6295C37.3415 83.72 37.1215 83.844 36.9695 84.092C36.8975 84.212 36.8615 84.34 36.8615 84.476V91.628H38.5775C39.1695 91.628 39.6215 91.496 39.9335 91.232C40.2455 90.968 40.5055 90.576 40.7135 90.056H40.8335L40.1375 92H35.1575V91.88H35.3135ZM42.7054 84.644C43.5614 83.836 44.6694 83.432 46.0294 83.432C47.3974 83.432 48.5094 83.836 49.3654 84.644C50.2214 85.444 50.6494 86.496 50.6494 87.8C50.6494 89.104 50.2214 90.16 49.3654 90.968C48.5094 91.768 47.3974 92.168 46.0294 92.168C44.6694 92.168 43.5614 91.768 42.7054 90.968C41.8494 90.16 41.4214 89.104 41.4214 87.8C41.4214 86.496 41.8494 85.444 42.7054 84.644ZM43.3534 90.704C44.0334 91.44 44.9254 91.808 46.0294 91.808C47.1334 91.808 48.0214 91.44 48.6934 90.704C49.3734 89.968 49.7134 89 49.7134 87.8C49.7134 86.6 49.3734 85.632 48.6934 84.896C48.0214 84.16 47.1334 83.792 46.0294 83.792C44.9254 83.792 44.0334 84.16 43.3534 84.896C42.6814 85.632 42.3454 86.6 42.3454 87.8C42.3454 89 42.6814 89.968 43.3534 90.704ZM57.2029 85.916C57.2029 86.268 57.1309 86.596 56.9869 86.9C56.7229 87.468 56.2589 87.864 55.5949 88.088C55.3629 88.168 55.1629 88.208 54.9949 88.208C54.4989 88.208 54.0709 88.116 53.7109 87.932V87.812C54.2949 87.94 54.8349 87.876 55.3309 87.62C55.7709 87.396 56.0709 87.028 56.2309 86.516C56.2789 86.356 56.3029 86.204 56.3029 86.06C56.3029 85.916 56.3029 85.828 56.3029 85.796C56.2869 85.236 56.1389 84.792 55.8589 84.464C55.5789 84.128 55.1869 83.96 54.6829 83.96H53.3029V91.124C53.3109 91.332 53.3869 91.512 53.5309 91.664C53.6829 91.808 53.8629 91.88 54.0709 91.88H54.2269V92H51.5989V91.88H51.7549C51.9629 91.88 52.1389 91.808 52.2829 91.664C52.4349 91.512 52.5149 91.332 52.5229 91.124V84.416C52.4989 84.216 52.4149 84.052 52.2709 83.924C52.1269 83.788 51.9549 83.72 51.7549 83.72H51.6109L51.5989 83.6H54.7309C55.4989 83.6 56.1029 83.808 56.5429 84.224C56.9829 84.632 57.2029 85.196 57.2029 85.916ZM58.6221 91.88C58.8301 91.88 59.0061 91.808 59.1501 91.664C59.3021 91.512 59.3821 91.332 59.3901 91.124V84.404C59.3901 84.212 59.3141 84.052 59.1621 83.924C59.0101 83.788 58.8301 83.72 58.6221 83.72H58.4781L58.4661 83.6H61.9821C62.2301 83.6 62.4981 83.576 62.7861 83.528C63.0821 83.48 63.2901 83.432 63.4101 83.384V84.896H63.2901V84.68C63.2901 84.488 63.2221 84.324 63.0861 84.188C62.9581 84.052 62.8021 83.98 62.6181 83.972H60.1701V87.68H62.1981C62.3581 87.672 62.4941 87.612 62.6061 87.5C62.7181 87.388 62.7741 87.248 62.7741 87.08V86.912H62.8941V88.808H62.7741V88.628C62.7741 88.468 62.7181 88.332 62.6061 88.22C62.5021 88.108 62.3701 88.048 62.2101 88.04H60.1701V91.628H61.8861C62.4781 91.628 62.9301 91.496 63.2421 91.232C63.5541 90.968 63.8141 90.576 64.0221 90.056H64.1421L63.4461 92H58.4661V91.88H58.6221ZM67.7467 83.972H66.9787V91.124C66.9787 91.332 67.0507 91.512 67.1947 91.664C67.3467 91.808 67.5307 91.88 67.7467 91.88H67.8907L67.9027 92H65.2747V91.88H65.4307C65.6387 91.88 65.8147 91.808 65.9587 91.664C66.1107 91.52 66.1907 91.344 66.1987 91.136V84.476C66.1907 84.268 66.1107 84.092 65.9587 83.948C65.8147 83.796 65.6387 83.72 65.4307 83.72H65.2747V83.6H68.5147C69.2427 83.6 69.8147 83.804 70.2307 84.212C70.6467 84.612 70.8547 85.136 70.8547 85.784C70.8547 86.424 70.6547 86.98 70.2547 87.452C69.8627 87.916 69.3827 88.148 68.8147 88.148C68.9347 88.204 69.0747 88.316 69.2347 88.484C69.4027 88.644 69.5507 88.812 69.6787 88.988C70.3667 89.972 70.8147 90.58 71.0227 90.812C71.2307 91.036 71.3787 91.192 71.4667 91.28C71.5547 91.36 71.6507 91.44 71.7547 91.52C71.8587 91.6 71.9627 91.664 72.0667 91.712C72.2987 91.824 72.5467 91.88 72.8107 91.88V92H72.1507C71.8067 92 71.4867 91.94 71.1907 91.82C70.8947 91.692 70.6707 91.564 70.5187 91.436C70.3747 91.3 70.2467 91.172 70.1347 91.052C70.0307 90.924 69.7347 90.508 69.2467 89.804C68.7587 89.1 68.4747 88.7 68.3947 88.604C68.3147 88.5 68.2307 88.4 68.1427 88.304C67.8867 88.032 67.6307 87.896 67.3747 87.896V87.776C67.4387 87.784 67.5227 87.788 67.6267 87.788C67.7307 87.788 67.8587 87.784 68.0107 87.776C69.0027 87.752 69.6267 87.336 69.8827 86.528C69.9307 86.368 69.9547 86.22 69.9547 86.084C69.9547 85.94 69.9547 85.848 69.9547 85.808C69.9387 85.272 69.7987 84.84 69.5347 84.512C69.2707 84.184 68.9147 84.008 68.4667 83.984C68.2747 83.976 68.0347 83.972 67.7467 83.972ZM82.5038 88.628C82.5038 88.468 82.4478 88.332 82.3358 88.22C82.2318 88.108 82.0998 88.048 81.9398 88.04H78.0998V91.124C78.0998 91.332 78.1758 91.512 78.3278 91.664C78.4798 91.808 78.6598 91.88 78.8678 91.88H79.0238V92H76.3958V91.88H76.5518C76.7598 91.88 76.9358 91.808 77.0798 91.664C77.2318 91.512 77.3118 91.332 77.3198 91.124V84.404C77.3198 84.212 77.2398 84.052 77.0798 83.924C76.9278 83.788 76.7518 83.72 76.5518 83.72H76.4078L76.3958 83.6H79.9118C80.2558 83.6 80.5598 83.572 80.8238 83.516C81.0878 83.46 81.2598 83.416 81.3398 83.384V84.74H81.2198V84.56C81.2198 84.4 81.1638 84.264 81.0518 84.152C80.9398 84.032 80.7998 83.972 80.6318 83.972H78.0998V87.68H81.9278C82.0878 87.672 82.2238 87.612 82.3358 87.5C82.4478 87.388 82.5038 87.248 82.5038 87.08V86.912H82.6238V88.808H82.5038V88.628ZM85.817 83.972H85.049V91.124C85.049 91.332 85.121 91.512 85.265 91.664C85.417 91.808 85.601 91.88 85.817 91.88H85.961L85.973 92H83.345V91.88H83.501C83.709 91.88 83.885 91.808 84.029 91.664C84.181 91.52 84.261 91.344 84.269 91.136V84.476C84.261 84.268 84.181 84.092 84.029 83.948C83.885 83.796 83.709 83.72 83.501 83.72H83.345V83.6H86.585C87.313 83.6 87.885 83.804 88.301 84.212C88.717 84.612 88.925 85.136 88.925 85.784C88.925 86.424 88.725 86.98 88.325 87.452C87.933 87.916 87.453 88.148 86.885 88.148C87.005 88.204 87.145 88.316 87.305 88.484C87.473 88.644 87.621 88.812 87.749 88.988C88.437 89.972 88.885 90.58 89.093 90.812C89.301 91.036 89.449 91.192 89.537 91.28C89.625 91.36 89.721 91.44 89.825 91.52C89.929 91.6 90.033 91.664 90.137 91.712C90.369 91.824 90.617 91.88 90.881 91.88V92H90.221C89.877 92 89.557 91.94 89.261 91.82C88.965 91.692 88.741 91.564 88.589 91.436C88.445 91.3 88.317 91.172 88.205 91.052C88.101 90.924 87.805 90.508 87.317 89.804C86.829 89.1 86.545 88.7 86.465 88.604C86.385 88.5 86.301 88.4 86.213 88.304C85.957 88.032 85.701 87.896 85.445 87.896V87.776C85.509 87.784 85.593 87.788 85.697 87.788C85.801 87.788 85.929 87.784 86.081 87.776C87.073 87.752 87.697 87.336 87.953 86.528C88.001 86.368 88.025 86.22 88.025 86.084C88.025 85.94 88.025 85.848 88.025 85.808C88.009 85.272 87.869 84.84 87.605 84.512C87.341 84.184 86.985 84.008 86.537 83.984C86.345 83.976 86.105 83.972 85.817 83.972ZM91.971 84.644C92.827 83.836 93.935 83.432 95.295 83.432C96.663 83.432 97.775 83.836 98.631 84.644C99.487 85.444 99.915 86.496 99.915 87.8C99.915 89.104 99.487 90.16 98.631 90.968C97.775 91.768 96.663 92.168 95.295 92.168C93.935 92.168 92.827 91.768 91.971 90.968C91.115 90.16 90.687 89.104 90.687 87.8C90.687 86.496 91.115 85.444 91.971 84.644ZM92.619 90.704C93.299 91.44 94.191 91.808 95.295 91.808C96.399 91.808 97.287 91.44 97.959 90.704C98.639 89.968 98.979 89 98.979 87.8C98.979 86.6 98.639 85.632 97.959 84.896C97.287 84.16 96.399 83.792 95.295 83.792C94.191 83.792 93.299 84.16 92.619 84.896C91.947 85.632 91.611 86.6 91.611 87.8C91.611 89 91.947 89.968 92.619 90.704ZM111.003 91.88H111.195V92H108.591V91.892H108.771C108.907 91.892 109.023 91.84 109.119 91.736C109.215 91.632 109.255 91.512 109.239 91.376L108.699 85.34L106.179 90.944C105.955 91.432 105.819 91.84 105.771 92.168H105.651L102.579 85.508L102.063 91.376C102.047 91.504 102.087 91.624 102.183 91.736C102.279 91.84 102.395 91.892 102.531 91.892H102.711V92H100.383V91.88H100.575C100.799 91.88 100.991 91.812 101.151 91.676C101.319 91.54 101.419 91.356 101.451 91.124L102.351 83.432H102.471L105.819 90.668L109.095 83.432H109.203L110.127 91.124C110.159 91.356 110.259 91.54 110.427 91.676C110.595 91.812 110.787 91.88 111.003 91.88ZM118.595 83.408C119.291 83.408 119.871 83.576 120.335 83.912C120.959 84.36 121.271 85.06 121.271 86.012C121.271 86.7 121.079 87.288 120.695 87.776C120.279 88.296 119.699 88.556 118.955 88.556C118.563 88.556 118.207 88.464 117.887 88.28C117.567 88.088 117.379 87.764 117.323 87.308L117.431 87.272C117.519 87.616 117.723 87.856 118.043 87.992C118.259 88.088 118.451 88.136 118.619 88.136C119.275 88.136 119.751 87.88 120.047 87.368C120.263 86.992 120.371 86.544 120.371 86.024C120.371 85.192 120.139 84.592 119.675 84.224C119.323 83.936 118.875 83.792 118.331 83.792C118.203 83.792 118.091 83.8 117.995 83.816C117.907 83.824 117.507 83.888 116.795 84.008V91.124C116.803 91.34 116.883 91.52 117.035 91.664C117.187 91.808 117.363 91.88 117.563 91.88H117.719V92H115.091V91.88H115.247C115.447 91.88 115.623 91.808 115.775 91.664C115.927 91.52 116.007 91.34 116.015 91.124V84.632C116.015 84.424 115.955 84.264 115.835 84.152C115.715 84.032 115.559 83.972 115.367 83.972C115.327 83.972 115.287 83.976 115.247 83.984L115.103 83.996L115.079 83.876C115.495 83.836 116.051 83.76 116.747 83.648C117.451 83.528 117.887 83.46 118.055 83.444C118.223 83.42 118.403 83.408 118.595 83.408ZM129.467 91.88H129.563V92H126.863V91.88H126.971C127.139 91.88 127.263 91.828 127.343 91.724C127.431 91.612 127.475 91.508 127.475 91.412C127.475 91.316 127.459 91.22 127.427 91.124L126.659 89.084H123.419L122.615 91.136C122.583 91.232 122.567 91.328 122.567 91.424C122.567 91.512 122.607 91.612 122.687 91.724C122.775 91.828 122.903 91.88 123.071 91.88H123.179V92H120.767V91.88H120.875C121.075 91.88 121.271 91.816 121.463 91.688C121.655 91.56 121.811 91.372 121.931 91.124L124.643 84.668C124.939 84.02 125.087 83.608 125.087 83.432H125.195L128.411 91.124C128.523 91.372 128.675 91.56 128.867 91.688C129.059 91.816 129.259 91.88 129.467 91.88ZM123.563 88.724H126.515L125.075 84.872L123.563 88.724ZM132.61 91.88H132.766V92H130.138V91.88H130.294C130.502 91.88 130.678 91.808 130.822 91.664C130.974 91.512 131.054 91.332 131.062 91.124V84.464C131.054 84.256 130.974 84.08 130.822 83.936C130.678 83.792 130.502 83.72 130.294 83.72H130.138V83.6H132.766V83.72H132.61C132.402 83.72 132.222 83.792 132.07 83.936C131.926 84.08 131.85 84.256 131.842 84.464V91.124C131.842 91.332 131.918 91.512 132.07 91.664C132.222 91.808 132.402 91.88 132.61 91.88ZM137.434 92H136.918C136.102 92 135.502 91.772 135.118 91.316L132.226 87.824L135.058 84.272C135.122 84.192 135.154 84.12 135.154 84.056C135.154 83.992 135.142 83.936 135.118 83.888C135.054 83.768 134.938 83.708 134.77 83.708H134.65V83.6H137.182V83.708H137.134C136.606 83.708 136.174 83.896 135.838 84.272L133.018 87.536L136.294 91.388C136.614 91.708 136.994 91.872 137.434 91.88V92ZM138.181 91.88C138.389 91.88 138.565 91.808 138.709 91.664C138.861 91.512 138.941 91.332 138.949 91.124V84.464C138.941 84.256 138.861 84.08 138.709 83.936C138.565 83.792 138.389 83.72 138.181 83.72H138.025V83.6H140.653V83.72H140.497C140.289 83.72 140.109 83.792 139.957 83.936C139.813 84.08 139.737 84.256 139.729 84.464V91.124C139.729 91.332 139.805 91.512 139.957 91.664C140.109 91.808 140.289 91.88 140.497 91.88H140.653V92H138.025V91.88H138.181ZM142.091 91.508C142.067 91.396 142.055 91.18 142.055 90.86C142.055 90.54 142.115 90.2 142.235 89.84H142.343C142.335 89.928 142.331 90.016 142.331 90.104C142.331 90.592 142.479 91 142.775 91.328C143.071 91.648 143.463 91.808 143.951 91.808C144.455 91.808 144.867 91.656 145.187 91.352C145.515 91.048 145.679 90.668 145.679 90.212C145.679 89.748 145.523 89.372 145.211 89.084L142.907 86.948C142.475 86.548 142.259 86.064 142.259 85.496C142.259 84.928 142.447 84.444 142.823 84.044C143.207 83.636 143.723 83.432 144.371 83.432C144.675 83.432 145.019 83.472 145.403 83.552H145.871V85.028H145.763C145.763 84.652 145.631 84.352 145.367 84.128C145.111 83.904 144.779 83.792 144.371 83.792C143.963 83.792 143.619 83.928 143.339 84.2C143.067 84.472 142.931 84.812 142.931 85.22C142.931 85.628 143.091 85.98 143.411 86.276L145.775 88.46C146.175 88.828 146.375 89.332 146.375 89.972C146.375 90.612 146.171 91.14 145.763 91.556C145.355 91.964 144.811 92.168 144.131 92.168C143.779 92.168 143.403 92.112 143.003 92C142.611 91.896 142.307 91.732 142.091 91.508ZM154.134 84.668C154.134 84.476 154.066 84.312 153.93 84.176C153.794 84.032 153.634 83.956 153.45 83.948H151.17V91.136C151.178 91.344 151.254 91.52 151.398 91.664C151.55 91.808 151.73 91.88 151.938 91.88H152.094V92H149.466V91.88H149.622C149.83 91.88 150.006 91.808 150.15 91.664C150.302 91.52 150.382 91.348 150.39 91.148V83.948H148.11C147.918 83.956 147.754 84.032 147.618 84.176C147.49 84.312 147.426 84.476 147.426 84.668V84.872L147.306 84.884V83.372C147.426 83.42 147.634 83.468 147.93 83.516C148.226 83.564 148.498 83.588 148.746 83.588H152.802C153.194 83.588 153.518 83.56 153.774 83.504C154.038 83.44 154.198 83.396 154.254 83.372V84.884L154.134 84.872V84.668ZM162.233 91.88H162.329V92H159.629V91.88H159.737C159.905 91.88 160.029 91.828 160.109 91.724C160.197 91.612 160.241 91.508 160.241 91.412C160.241 91.316 160.225 91.22 160.193 91.124L159.425 89.084H156.185L155.381 91.136C155.349 91.232 155.333 91.328 155.333 91.424C155.333 91.512 155.373 91.612 155.453 91.724C155.541 91.828 155.669 91.88 155.837 91.88H155.945V92H153.533V91.88H153.641C153.841 91.88 154.037 91.816 154.229 91.688C154.421 91.56 154.577 91.372 154.697 91.124L157.409 84.668C157.705 84.02 157.853 83.608 157.853 83.432H157.961L161.177 91.124C161.289 91.372 161.441 91.56 161.633 91.688C161.825 91.816 162.025 91.88 162.233 91.88ZM156.329 88.724H159.281L157.841 84.872L156.329 88.724ZM171.52 83.72C171.32 83.72 171.148 83.792 171.004 83.936C170.86 84.072 170.784 84.24 170.776 84.44V90.632C170.776 91.096 170.804 91.536 170.86 91.952L170.884 92.168H170.776L164.236 85.184V91.16C164.236 91.36 164.308 91.532 164.452 91.676C164.596 91.812 164.768 91.88 164.968 91.88H165.196V92H162.724V91.88H162.952C163.152 91.88 163.324 91.812 163.468 91.676C163.612 91.532 163.684 91.356 163.684 91.148V84.92C163.684 84.432 163.656 83.996 163.6 83.612L163.576 83.42H163.696L170.236 90.404V84.452C170.228 84.244 170.152 84.072 170.008 83.936C169.864 83.792 169.692 83.72 169.492 83.72H169.264V83.6H171.736V83.72H171.52ZM173.737 91.892C173.633 91.996 173.505 92.048 173.353 92.048C173.201 92.048 173.073 91.996 172.969 91.892C172.865 91.788 172.813 91.66 172.813 91.508C172.813 91.356 172.865 91.228 172.969 91.124C173.073 91.02 173.201 90.968 173.353 90.968C173.505 90.968 173.633 91.02 173.737 91.124C173.841 91.228 173.893 91.356 173.893 91.508C173.893 91.66 173.841 91.788 173.737 91.892Z" fill="white"/>
</svg>
